<svg width="18" height="16" viewBox="0 0 18 16" fill="none" xmlns="http://www.w3.org/2000/svg">
<path d="M17.6511 8.62167C17.9681 8.2662 17.9681 7.73558 17.6511 7.38011L16.5209 6.11295C16.3475 5.91852 16.263 5.66286 16.2872 5.40565L16.4445 3.7318C16.4888 3.26078 16.1703 2.83049 15.6999 2.72572L14.033 2.35445C13.775 2.29699 13.5525 2.13783 13.418 1.91445L12.5443 0.464014C12.2983 0.0556295 11.7813 -0.110051 11.3368 0.0770925L9.76883 0.737324C9.52656 0.839336 9.2522 0.839336 9.00993 0.737324L7.44084 0.0766404C6.99685 -0.110309 6.48033 0.0548189 6.23403 0.462449L5.36164 1.90626C5.22656 2.12982 5.00339 2.28881 4.74481 2.3457L3.08134 2.71169C2.6098 2.81544 2.29002 3.2462 2.33424 3.71809L2.49176 5.39891C2.5158 5.65546 2.43175 5.91049 2.25913 6.10472L1.12555 7.38026C0.809573 7.73581 0.810052 8.26557 1.12667 8.62056L2.25792 9.88893C2.43128 10.0833 2.51576 10.3389 2.49167 10.596L2.33404 12.278C2.2899 12.749 2.60835 13.1791 3.07867 13.2839L4.74652 13.6554C5.00408 13.7127 5.22624 13.8714 5.36087 14.0943L6.23295 15.5375C6.47971 15.9459 6.9976 16.1108 7.44196 15.9224L9.00904 15.2581C9.25181 15.1552 9.5271 15.1548 9.77013 15.2571L11.3379 15.9173C11.7819 16.1042 12.2984 15.9391 12.5447 15.5315L13.4179 14.0864C13.5525 13.8636 13.7747 13.7049 14.0322 13.6475L15.6999 13.2761C16.1703 13.1713 16.4888 12.741 16.4445 12.27L16.2872 10.5961C16.263 10.3389 16.3475 10.0833 16.5209 9.88883L17.6511 8.62167ZM7.28971 11.152L5.38238 9.26606C5.06984 8.95959 5.06984 8.46452 5.38238 8.15806L5.43848 8.10305C5.75103 7.79658 6.26392 7.79658 6.57647 8.10305L7.18606 8.7045C7.56153 9.07496 8.17257 9.07559 8.54884 8.70592L11.9939 5.32125C12.3065 5.01478 12.8194 5.01478 13.1319 5.32125L13.188 5.37626C13.5006 5.68273 13.5006 6.17779 13.188 6.48426L8.44373 11.152C8.11516 11.4585 7.61027 11.4585 7.28971 11.152Z" fill="#FF90DA"/>
</svg>
