<svg width="26" height="26" viewBox="0 0 26 26" fill="none" xmlns="http://www.w3.org/2000/svg">
<path d="M13 0.5C6.125 0.5 0.5 6.125 0.5 13C0.5 19.875 6.125 25.5 13 25.5C19.875 25.5 25.5 19.875 25.5 13C25.5 6.125 19.875 0.5 13 0.5ZM17.4375 17.75L12.3375 14.6125C11.9625 14.3875 11.7375 13.9875 11.7375 13.55V7.6875C11.75 7.175 12.175 6.75 12.6875 6.75C13.2 6.75 13.625 7.175 13.625 7.6875V13.25L18.425 16.1375C18.875 16.4125 19.025 17 18.75 17.45C18.475 17.8875 17.8875 18.025 17.4375 17.75Z" fill="url(#paint0_linear_496_16)"/>
<defs>
<linearGradient id="paint0_linear_496_16" x1="25.5" y1="13" x2="0.5" y2="13" gradientUnits="userSpaceOnUse">
<stop stop-color="#D081FF"/>
<stop offset="1" stop-color="#FF91DA"/>
</linearGradient>
</defs>
</svg>
