<svg width="17" height="16" viewBox="0 0 17 16" fill="none" xmlns="http://www.w3.org/2000/svg">
<path d="M0.888885 13.3333C0.888885 13.8222 1.28889 14.2222 1.77777 14.2222H6.22222V12.4444H1.77777C1.28889 12.4444 0.888885 12.8444 0.888885 13.3333ZM0.888885 2.66667C0.888885 3.15556 1.28889 3.55556 1.77777 3.55556H9.77777V1.77778H1.77777C1.28889 1.77778 0.888885 2.17778 0.888885 2.66667ZM9.77777 15.1111V14.2222H16C16.4889 14.2222 16.8889 13.8222 16.8889 13.3333C16.8889 12.8444 16.4889 12.4444 16 12.4444H9.77777V11.5556C9.77777 11.0667 9.37777 10.6667 8.88889 10.6667C8.4 10.6667 8 11.0667 8 11.5556V15.1111C8 15.6 8.4 16 8.88889 16C9.37777 16 9.77777 15.6 9.77777 15.1111ZM4.44444 6.22222V7.11111H1.77777C1.28889 7.11111 0.888885 7.51111 0.888885 8C0.888885 8.48889 1.28889 8.88889 1.77777 8.88889H4.44444V9.77778C4.44444 10.2667 4.84444 10.6667 5.33333 10.6667C5.82222 10.6667 6.22222 10.2667 6.22222 9.77778V6.22222C6.22222 5.73333 5.82222 5.33333 5.33333 5.33333C4.84444 5.33333 4.44444 5.73333 4.44444 6.22222ZM16.8889 8C16.8889 7.51111 16.4889 7.11111 16 7.11111H8V8.88889H16C16.4889 8.88889 16.8889 8.48889 16.8889 8ZM12.4444 5.33333C12.9333 5.33333 13.3333 4.93333 13.3333 4.44444V3.55556H16C16.4889 3.55556 16.8889 3.15556 16.8889 2.66667C16.8889 2.17778 16.4889 1.77778 16 1.77778H13.3333V0.888889C13.3333 0.4 12.9333 0 12.4444 0C11.9556 0 11.5556 0.4 11.5556 0.888889V4.44444C11.5556 4.93333 11.9556 5.33333 12.4444 5.33333Z" fill="#FF90DA"/>
</svg>
