<svg width="36" height="36" viewBox="0 0 36 36" fill="none" xmlns="http://www.w3.org/2000/svg">
<path d="M15 35.8C6.5 34.3 0 26.9 0 18C0 8.1 8.1 0 18 0C27.9 0 36 8.1 36 18C36 26.9 29.5 34.3 21 35.8L20 35H16L15 35.8Z" fill="url(#paint0_linear_179_217)"/>
<path d="M24.5 23L25.3 18H20.5V14.5C20.5 13.1 21 12 23.2 12H25.5V7.4C24.2 7.2 22.8 7 21.5 7C17.4 7 14.5 9.5 14.5 14V18H10V23H14.5V35.7C15.5 35.9 16.5 36 17.5 36C18.5 36 19.5 35.9 20.5 35.7V23H24.5Z" fill="white"/>
<defs>
<linearGradient id="paint0_linear_179_217" x1="18" y1="34.754" x2="18" y2="0" gradientUnits="userSpaceOnUse">
<stop stop-color="#0062E0"/>
<stop offset="1" stop-color="#19AFFF"/>
</linearGradient>
</defs>
</svg>
