<svg width="36" height="36" viewBox="0 0 36 36" fill="none" xmlns="http://www.w3.org/2000/svg">
<circle cx="18" cy="18" r="18" fill="url(#paint0_radial_179_223)"/>
<circle cx="18" cy="18" r="18" fill="url(#paint1_radial_179_223)"/>
<path d="M18.0011 6C14.7421 6 14.3331 6.01425 13.0531 6.0725C11.7756 6.13101 10.9036 6.33326 10.1405 6.63003C9.35128 6.93654 8.68178 7.34655 8.01477 8.01383C7.34726 8.68086 6.93726 9.35039 6.62976 10.1394C6.33225 10.9027 6.12975 11.775 6.07225 13.052C6.015 14.3321 6 14.7414 6 18.0005C6 21.2596 6.0145 21.6674 6.0725 22.9474C6.13125 24.225 6.3335 25.097 6.63001 25.8601C6.93676 26.6493 7.34676 27.3189 8.01402 27.9859C8.68078 28.6534 9.35028 29.0644 10.139 29.3709C10.9026 29.6677 11.7748 29.87 13.0521 29.9285C14.3321 29.9867 14.7408 30.001 17.9996 30.001C21.2589 30.001 21.6667 29.9867 22.9467 29.9285C24.2242 29.87 25.0972 29.6677 25.8607 29.3709C26.6497 29.0644 27.3182 28.6534 27.985 27.9859C28.6525 27.3189 29.0625 26.6493 29.37 25.8603C29.665 25.097 29.8675 24.2247 29.9275 22.9477C29.985 21.6676 30 21.2596 30 18.0005C30 14.7414 29.985 14.3323 29.9275 13.0523C29.8675 11.7747 29.665 10.9027 29.37 10.1397C29.0625 9.35039 28.6525 8.68086 27.985 8.01383C27.3175 7.3463 26.65 6.93629 25.86 6.63003C25.0949 6.33326 24.2224 6.13101 22.9449 6.0725C21.6649 6.01425 21.2574 6 17.9974 6H18.0011ZM16.9246 8.16259C17.2441 8.16209 17.6006 8.16259 18.0011 8.16259C21.2052 8.16259 21.5849 8.17409 22.8502 8.23159C24.0202 8.28509 24.6552 8.4806 25.0782 8.64486C25.6382 8.86237 26.0375 9.12238 26.4572 9.54239C26.8772 9.96241 27.1372 10.3624 27.3552 10.9224C27.5195 11.345 27.7152 11.98 27.7685 13.15C27.826 14.4151 27.8385 14.7951 27.8385 17.9977C27.8385 21.2004 27.826 21.5804 27.7685 22.8454C27.715 24.0155 27.5195 24.6505 27.3552 25.073C27.1377 25.633 26.8772 26.0318 26.4572 26.4516C26.0372 26.8716 25.6385 27.1316 25.0782 27.3491C24.6557 27.5141 24.0202 27.7091 22.8502 27.7626C21.5852 27.8201 21.2052 27.8326 18.0011 27.8326C14.7968 27.8326 14.4171 27.8201 13.1521 27.7626C11.9821 27.7086 11.3471 27.5131 10.9238 27.3489C10.3638 27.1314 9.96379 26.8713 9.54379 26.4513C9.12378 26.0313 8.86378 25.6323 8.64578 25.072C8.48153 24.6495 8.28577 24.0145 8.23252 22.8444C8.17502 21.5794 8.16352 21.1994 8.16352 17.9947C8.16352 14.7901 8.17502 14.4121 8.23252 13.147C8.28602 11.977 8.48153 11.342 8.64578 10.9189C8.86328 10.3589 9.12378 9.95891 9.54379 9.53889C9.96379 9.11888 10.3638 8.85887 10.9238 8.64086C11.3468 8.47585 11.9821 8.28084 13.1521 8.22709C13.9938 8.18907 16.9246 8.16259 16.9246 8.16259ZM24.4067 10.1552C23.6117 10.1552 22.9667 10.7994 22.9667 11.5947C22.9667 12.3898 23.6117 13.0348 24.4067 13.0348C25.2017 13.0348 25.8467 12.3898 25.8467 11.5947C25.8467 10.7997 25.2017 10.1552 24.4067 10.1552ZM18.0011 11.8377C14.5978 11.8377 11.8386 14.5971 11.8386 18.0005C11.8386 21.4039 14.5978 24.162 18.0011 24.162C21.4044 24.162 24.1627 21.4039 24.1627 18.0005C24.1627 14.5971 21.4044 11.8377 18.0011 11.8377ZM18.0011 14.0003C20.2101 14.0003 22.0012 15.7911 22.0012 18.0005C22.0012 20.2096 20.2101 22.0006 18.0011 22.0006C15.7919 22.0006 14.0011 20.2096 14.0011 18.0005C14.0011 15.7911 15.7919 14.0003 18.0011 14.0003Z" fill="white"/>
<defs>
<radialGradient id="paint0_radial_179_223" cx="0" cy="0" r="1" gradientUnits="userSpaceOnUse" gradientTransform="translate(9.56255 38.7728) rotate(-90) scale(35.6787 33.184)">
<stop stop-color="#FFDD55"/>
<stop offset="0.1" stop-color="#FFDD55"/>
<stop offset="0.5" stop-color="#FF543E"/>
<stop offset="1" stop-color="#C837AB"/>
</radialGradient>
<radialGradient id="paint1_radial_179_223" cx="0" cy="0" r="1" gradientUnits="userSpaceOnUse" gradientTransform="translate(-6.03019 2.59338) rotate(78.6806) scale(15.9485 65.7404)">
<stop stop-color="#3771C8"/>
<stop offset="0.128" stop-color="#3771C8"/>
<stop offset="1" stop-color="#6600FF" stop-opacity="0"/>
</radialGradient>
</defs>
</svg>
