<svg width="228" height="52" viewBox="0 0 228 52" fill="none" xmlns="http://www.w3.org/2000/svg">
<path d="M3.05346 26.0014C3.05346 29.67 2.32298 33.1655 1 36.3579L25.9986 26.0014L1 15.6448C2.32298 18.8345 3.05346 22.3327 3.05346 26.0014Z" fill="#FF223F" stroke="black" stroke-width="0.5" stroke-linejoin="round"/>
<path d="M25.9987 48.9464C29.6673 48.9464 33.1628 49.6769 36.3552 50.9999L25.9987 26.0012L15.6421 50.9999C18.8319 49.6769 22.33 48.9464 25.9987 48.9464Z" fill="#FF223F" stroke="black" stroke-width="0.5" stroke-linejoin="round"/>
<path d="M9.77387 42.226C12.3684 44.8205 14.3245 47.8101 15.6448 50.9999L26.0013 26.0012L1 36.3551C4.18976 37.6754 7.18202 39.6314 9.77387 42.226Z" fill="white" stroke="black" stroke-width="0.5" stroke-linejoin="round"/>
<path d="M42.2259 42.226C39.6313 44.8205 37.6753 47.8101 36.355 50.9999L25.9984 26.0012L50.997 36.3578C47.8073 37.6781 44.815 39.6341 42.2232 42.2287L42.2259 42.226Z" fill="white" stroke="black" stroke-width="0.5" stroke-linejoin="round"/>
<path d="M9.77387 9.77387C12.3684 7.18202 14.3245 4.18976 15.6448 1L26.0013 25.9986L1 15.6448C4.18976 14.3245 7.18202 12.3684 9.77387 9.77387Z" fill="white" stroke="black" stroke-width="0.5" stroke-linejoin="round"/>
<path d="M48.9468 26.0014C48.9468 22.3327 49.6772 18.8372 51.0002 15.6448L26.0016 26.0014L51.0002 36.3579C49.6772 33.1682 48.9468 29.67 48.9468 26.0014Z" fill="#FF223F" stroke="black" stroke-width="0.5" stroke-linejoin="round"/>
<path d="M25.9987 3.05346C22.33 3.05346 18.8346 2.32298 15.6421 1L25.9987 25.9986L36.3552 1C33.1655 2.32298 29.6673 3.05346 25.9987 3.05346Z" fill="#FF223F" stroke="black" stroke-width="0.5" stroke-linejoin="round"/>
<path d="M42.2259 9.77387C39.6313 7.17932 37.6753 4.18976 36.355 1L25.9984 25.9986L50.997 15.6421C47.8073 14.3218 44.815 12.3657 42.2232 9.77116L42.2259 9.77387Z" fill="white" stroke="black" stroke-width="0.5" stroke-linejoin="round"/>
<path d="M154.557 19.4063C154.193 19.5589 153.766 19.6994 153.274 19.8279C152.783 19.9564 152.268 20.0206 151.729 20.0206C150.739 20.0206 150.02 19.8761 149.572 19.587C149.124 19.2899 148.834 18.8682 148.7 18.3222H148.628C148.336 18.5952 148.056 18.8281 147.786 19.0208C147.524 19.2136 147.244 19.3782 146.945 19.5147C146.556 19.6914 146.181 19.8199 145.822 19.9002C145.47 19.9885 144.98 20.0327 144.353 20.0327C143.419 20.0327 142.64 19.7596 142.016 19.2136C141.391 18.6594 141.109 17.9287 141.167 17.0212C141.201 16.4992 141.302 16.0575 141.47 15.6961C141.639 15.3267 141.865 15.0015 142.149 14.7204C142.407 14.4634 142.698 14.2506 143.023 14.082C143.355 13.9133 143.716 13.7567 144.103 13.6122C144.845 13.3472 145.731 13.0741 146.763 12.793C147.796 12.5039 148.553 12.247 149.034 12.0221L149.109 10.8657C149.122 10.6649 149.123 10.3999 149.112 10.0706C149.101 9.74139 149.05 9.46433 148.96 9.23947C148.864 8.98249 148.701 8.76566 148.471 8.58898C148.241 8.41231 147.929 8.32397 147.535 8.32397C147.18 8.32397 146.879 8.37617 146.631 8.48057C146.392 8.57694 146.196 8.67732 146.044 8.78172C146.058 8.94233 146.111 9.18727 146.202 9.51653C146.294 9.84578 146.33 10.163 146.31 10.4682C146.301 10.6047 146.254 10.7773 146.168 10.9861C146.082 11.1869 145.967 11.3475 145.823 11.468C145.627 11.6286 145.41 11.7531 145.171 11.8414C144.94 11.9297 144.587 11.9739 144.112 11.9739C143.436 11.9739 142.936 11.8133 142.61 11.4921C142.286 11.1628 142.14 10.7372 142.174 10.2152C142.203 9.76548 142.406 9.36394 142.783 9.01059C143.168 8.64921 143.626 8.35208 144.156 8.11919C144.678 7.87827 145.274 7.69356 145.942 7.56507C146.611 7.42855 147.227 7.36029 147.79 7.36029C148.57 7.36029 149.284 7.40847 149.929 7.50484C150.575 7.59318 151.151 7.7819 151.655 8.07101C152.136 8.35208 152.504 8.76164 152.759 9.2997C153.022 9.82972 153.126 10.5244 153.071 11.3837C153.012 12.2911 152.923 13.3672 152.802 14.612C152.69 15.8567 152.621 16.6759 152.595 17.0694C152.572 17.4308 152.606 17.7158 152.697 17.9246C152.796 18.1334 152.955 18.29 153.174 18.3944C153.306 18.4587 153.517 18.4988 153.806 18.5149C154.103 18.5229 154.372 18.5269 154.614 18.5269L154.557 19.4063ZM148.963 13.1303C148.502 13.2829 148.044 13.4596 147.589 13.6604C147.134 13.8531 146.758 14.0579 146.463 14.2747C146.15 14.4996 145.898 14.7887 145.706 15.142C145.515 15.4873 145.404 15.8969 145.374 16.3707C145.333 16.9971 145.445 17.4508 145.708 17.7319C145.98 18.013 146.325 18.1535 146.743 18.1535C147.186 18.1535 147.554 18.0652 147.847 17.8885C148.148 17.7038 148.416 17.4789 148.651 17.2139L148.963 13.1303Z" fill="url(#paint0_linear_328_153)"/>
<path d="M134.478 20.0447C133.359 20.0447 132.38 19.8841 131.539 19.5629C130.708 19.2336 130.032 18.7879 129.513 18.2258C128.995 17.6556 128.624 16.981 128.401 16.2021C128.177 15.4231 128.095 14.5758 128.154 13.6604C128.208 12.8252 128.424 12.0301 128.803 11.2752C129.19 10.5204 129.687 9.85783 130.295 9.28765C130.921 8.70141 131.679 8.23563 132.57 7.89032C133.47 7.53697 134.447 7.36029 135.502 7.36029C136.982 7.36029 138.135 7.64137 138.96 8.20351C139.785 8.75763 140.167 9.5085 140.106 10.4561C140.069 11.0343 139.886 11.5001 139.557 11.8535C139.229 12.2068 138.69 12.3835 137.942 12.3835C137.338 12.3835 136.84 12.2389 136.449 11.9498C136.065 11.6607 135.888 11.2833 135.918 10.8175C135.944 10.424 136.033 10.0345 136.187 9.64903C136.34 9.26356 136.436 8.97044 136.473 8.76967C136.394 8.62512 136.288 8.51671 136.156 8.44443C136.024 8.36412 135.814 8.32397 135.524 8.32397C135.162 8.32397 134.826 8.40829 134.518 8.57694C134.209 8.74558 133.912 9.04272 133.627 9.46834C133.352 9.86988 133.116 10.4079 132.92 11.0825C132.731 11.7571 132.606 12.5682 132.545 13.5158C132.453 14.9453 132.713 16.0977 133.324 16.973C133.944 17.8483 134.72 18.286 135.654 18.286C136.547 18.286 137.268 18.0893 137.816 17.6958C138.373 17.2942 138.881 16.7281 139.338 15.9973L140.203 16.6237C139.922 17.1135 139.595 17.5633 139.223 17.9728C138.851 18.3744 138.413 18.7317 137.91 19.0449C137.382 19.3742 136.851 19.6231 136.317 19.7918C135.783 19.9604 135.17 20.0447 134.478 20.0447Z" fill="url(#paint1_linear_328_153)"/>
<path d="M126.5 19.6593H118.871L118.927 18.7799C119.138 18.7638 119.344 18.7438 119.547 18.7197C119.75 18.6956 119.925 18.6554 120.074 18.5992C120.338 18.5028 120.527 18.3663 120.643 18.1896C120.76 18.0049 120.828 17.764 120.847 17.4669L121.299 10.4561C121.318 10.175 121.269 9.93011 121.154 9.72131C121.039 9.50448 120.889 9.33182 120.704 9.20333C120.566 9.10696 120.35 9.01461 120.058 8.92627C119.774 8.83793 119.512 8.78172 119.272 8.75763L119.329 7.87827L125.264 7.56507L125.434 7.74576L124.816 17.3103C124.798 17.5914 124.843 17.8323 124.951 18.0331C125.059 18.2258 125.223 18.3703 125.442 18.4667C125.598 18.539 125.771 18.6032 125.961 18.6594C126.15 18.7157 126.349 18.7558 126.556 18.7799L126.5 19.6593ZM125.797 3.22851C125.758 3.83884 125.487 4.36084 124.984 4.79449C124.49 5.22012 123.921 5.43293 123.277 5.43293C122.625 5.43293 122.076 5.22012 121.628 4.79449C121.19 4.36084 120.99 3.83884 121.029 3.22851C121.069 2.61818 121.336 2.09619 121.831 1.66253C122.333 1.22887 122.911 1.01205 123.563 1.01205C124.214 1.01205 124.76 1.22887 125.198 1.66253C125.637 2.09619 125.837 2.61818 125.797 3.22851Z" fill="url(#paint2_linear_328_153)"/>
<path d="M121.633 3.04782C121.62 3.24859 121.573 3.46943 121.493 3.71035C121.413 3.95127 121.295 4.15605 121.14 4.3247C120.958 4.52546 120.759 4.67805 120.543 4.78245C120.327 4.88684 120.01 4.93904 119.591 4.93904C118.955 4.93904 118.471 4.7182 118.137 4.27651C117.804 3.83483 117.465 3.10002 117.121 2.07209C116.79 2.20862 116.506 2.56197 116.268 3.13214C116.03 3.70232 115.85 4.927 115.729 6.80617L115.667 7.75781H118.999L118.915 9.05878H115.607L115.072 17.3585C115.052 17.6717 115.108 17.9166 115.242 18.0933C115.376 18.2619 115.557 18.3864 115.785 18.4667C115.974 18.531 116.223 18.5952 116.533 18.6594C116.843 18.7157 117.122 18.7558 117.37 18.7799L117.314 19.6593H109.166L109.222 18.7799C109.433 18.7638 109.635 18.7438 109.83 18.7197C110.032 18.6956 110.212 18.6554 110.369 18.5992C110.632 18.5028 110.814 18.3663 110.914 18.1897C111.023 18.0049 111.086 17.764 111.106 17.4669L111.648 9.05878H109.198L109.282 7.75781H111.732C111.788 6.89853 111.966 6.06735 112.267 5.26429C112.569 4.45319 113.002 3.73043 113.566 3.09601C114.113 2.46961 114.814 1.96368 115.668 1.57821C116.521 1.19274 117.508 1 118.626 1C119.624 1 120.384 1.18872 120.907 1.56616C121.43 1.9436 121.672 2.43749 121.633 3.04782Z" fill="url(#paint3_linear_328_153)"/>
<path d="M108.228 19.4063C107.864 19.5589 107.437 19.6994 106.946 19.8279C106.455 19.9564 105.939 20.0206 105.4 20.0206C104.41 20.0206 103.691 19.8761 103.243 19.587C102.796 19.2899 102.505 18.8682 102.371 18.3222H102.299C102.008 18.5952 101.727 18.8281 101.457 19.0208C101.195 19.2136 100.915 19.3782 100.617 19.5147C100.227 19.6914 99.8524 19.8199 99.4932 19.9002C99.1414 19.9885 98.6517 20.0327 98.024 20.0327C97.0905 20.0327 96.3115 19.7596 95.6868 19.2136C95.0627 18.6594 94.7799 17.9287 94.8385 17.0212C94.8721 16.4992 94.9731 16.0575 95.1412 15.6961C95.3099 15.3267 95.5361 15.0015 95.8198 14.7204C96.0778 14.4634 96.3692 14.2506 96.6939 14.082C97.0267 13.9133 97.3869 13.7567 97.7744 13.6122C98.5158 13.3472 99.4025 13.0741 100.435 12.793C101.467 12.5039 102.224 12.247 102.705 12.0221L102.78 10.8657C102.793 10.6649 102.794 10.3999 102.783 10.0706C102.772 9.74139 102.722 9.46433 102.632 9.23947C102.535 8.98249 102.372 8.76566 102.142 8.58898C101.912 8.41231 101.6 8.32397 101.206 8.32397C100.852 8.32397 100.551 8.37617 100.302 8.48057C100.063 8.57694 99.8673 8.67732 99.7157 8.78172C99.7295 8.94233 99.7821 9.18727 99.8735 9.51653C99.9649 9.84578 100.001 10.163 99.9811 10.4682C99.9723 10.6047 99.9249 10.7773 99.839 10.9861C99.7537 11.1869 99.6387 11.3475 99.4941 11.468C99.2986 11.6286 99.0814 11.7531 98.8423 11.8414C98.6113 11.9297 98.2584 11.9739 97.7836 11.9739C97.1076 11.9739 96.6069 11.8133 96.2816 11.4921C95.9569 11.1628 95.8113 10.7372 95.845 10.2152C95.874 9.76548 96.077 9.36394 96.4538 9.01059C96.8393 8.64921 97.297 8.35208 97.8271 8.11919C98.3496 7.87827 98.945 7.69356 99.6132 7.56507C100.282 7.42855 100.898 7.36029 101.461 7.36029C102.242 7.36029 102.955 7.40847 103.601 7.50484C104.247 7.59318 104.822 7.7819 105.326 8.07101C105.807 8.35208 106.175 8.76164 106.43 9.2997C106.694 9.82972 106.798 10.5244 106.742 11.3837C106.684 12.2911 106.594 13.3672 106.473 14.612C106.361 15.8567 106.292 16.6759 106.267 17.0694C106.243 17.4308 106.277 17.7158 106.368 17.9246C106.468 18.1334 106.626 18.29 106.845 18.3944C106.978 18.4587 107.188 18.4988 107.477 18.5149C107.774 18.5229 108.044 18.5269 108.285 18.5269L108.228 19.4063ZM102.634 13.1303C102.173 13.2829 101.715 13.4596 101.26 13.6604C100.805 13.8531 100.429 14.0579 100.134 14.2747C99.8216 14.4996 99.5695 14.7887 99.3777 15.142C99.1865 15.4873 99.0755 15.8969 99.045 16.3707C99.0045 16.9971 99.1161 17.4508 99.3796 17.7319C99.6512 18.013 99.9962 18.1535 100.415 18.1535C100.857 18.1535 101.225 18.0652 101.518 17.8885C101.82 17.7038 102.088 17.4789 102.322 17.2139L102.634 13.1303ZM105.52 2.07209C105.497 2.43347 105.394 2.72659 105.21 2.95145C105.035 3.16828 104.759 3.39314 104.382 3.62603C103.971 3.88301 103.324 4.24841 102.44 4.72222C101.557 5.18799 100.555 5.74613 99.4351 6.39661L98.9576 5.93886C99.7264 4.99927 100.322 4.25242 100.744 3.69831C101.166 3.13616 101.531 2.65833 101.838 2.26483C102.216 1.77496 102.567 1.4457 102.892 1.27706C103.217 1.10038 103.613 1.01205 104.08 1.01205C104.466 1.01205 104.805 1.11644 105.098 1.32524C105.398 1.53404 105.539 1.78299 105.52 2.07209Z" fill="url(#paint4_linear_328_153)"/>
<path d="M94.1986 9.91404C94.1592 10.5244 93.9354 11.0624 93.5271 11.5282C93.1193 11.986 92.6056 12.2148 91.986 12.2148C91.3985 12.2148 90.9092 12.0663 90.5179 11.7691C90.1347 11.472 89.9618 11.0343 89.9991 10.4561C90.0173 10.175 90.0514 9.95821 90.1014 9.80563C90.152 9.64502 90.1978 9.49645 90.2388 9.35993C89.8676 9.37599 89.469 9.50448 89.0431 9.7454C88.6171 9.98632 88.2343 10.3075 87.8945 10.7091L87.4678 17.3223C87.4496 17.6034 87.4788 17.8363 87.5555 18.021C87.6321 18.2057 87.7716 18.3503 87.9741 18.4547C88.1454 18.543 88.4262 18.6193 88.8164 18.6835C89.2151 18.7398 89.5027 18.7719 89.6793 18.7799L89.6225 19.6593H81.547L81.6037 18.7799C81.806 18.7638 82.0084 18.7438 82.2112 18.7197C82.4225 18.6876 82.6021 18.6474 82.7501 18.5992C83.0133 18.5109 83.1991 18.3744 83.3076 18.1897C83.4161 18.0049 83.4799 17.764 83.4991 17.4669L83.9515 10.4561C83.9702 10.167 83.9183 9.91003 83.7961 9.68517C83.6743 9.45228 83.5212 9.26758 83.3369 9.13105C83.1983 9.03469 83.0184 8.95438 82.7972 8.89013C82.584 8.82589 82.3455 8.78172 82.0815 8.75763L82.1382 7.87827L87.9163 7.56507L88.0857 7.74576L87.973 9.49243H88.0213C88.618 8.84998 89.2379 8.34806 89.8808 7.98668C90.5324 7.61727 91.1961 7.43257 91.8721 7.43257C92.6205 7.43257 93.205 7.66546 93.6256 8.13124C94.0548 8.58898 94.2458 9.18325 94.1986 9.91404Z" fill="url(#paint5_linear_328_153)"/>
<path d="M81.235 12.7087C80.984 12.7328 80.7609 12.7609 80.5657 12.793C80.3705 12.8252 80.1249 12.8894 79.829 12.9858C79.4923 13.0902 79.2639 13.2628 79.1437 13.5038C79.0235 13.7447 78.9549 13.9976 78.9378 14.2627L78.8096 16.2502C78.7836 16.6518 78.7667 16.977 78.7587 17.226C78.7512 17.4669 78.7438 17.768 78.7366 18.1294C77.9008 18.6113 76.6805 19.065 75.0757 19.4906C73.479 19.9162 72.0208 20.1291 70.701 20.1291C69.4617 20.1291 68.311 19.9403 67.249 19.5629C66.187 19.1855 65.2699 18.6193 64.4978 17.8644C63.7251 17.1176 63.1372 16.19 62.7339 15.0818C62.3386 13.9735 62.1871 12.7047 62.2794 11.2752C62.3654 9.94215 62.6663 8.70944 63.1819 7.57712C63.6976 6.44479 64.4003 5.46907 65.2901 4.64994C66.1633 3.83884 67.2016 3.21245 68.405 2.77076C69.6165 2.32908 70.9384 2.10823 72.3708 2.10823C73.3446 2.10823 74.2381 2.22869 75.0514 2.46961C75.8653 2.7025 76.533 2.95547 77.0546 3.22851L77.8457 2.56598H78.8959L78.6019 8.80581H77.5396C77.0488 6.93467 76.4061 5.54536 75.6116 4.63789C74.8172 3.73043 73.7681 3.2767 72.4644 3.2767C70.9193 3.2767 69.6808 3.95127 68.7487 5.30042C67.8248 6.64958 67.2863 8.50868 67.1335 10.8777C66.9713 13.3913 67.2547 15.3588 67.9838 16.7803C68.721 18.2017 69.846 18.9124 71.3589 18.9124C72.0671 18.9124 72.7015 18.808 73.2622 18.5992C73.8315 18.3824 74.2781 18.1334 74.602 17.8524L74.8259 14.3831C74.8445 14.094 74.8078 13.8531 74.7156 13.6604C74.6239 13.4596 74.4258 13.2869 74.1213 13.1424C73.8872 13.0299 73.5913 12.9376 73.2339 12.8653C72.8764 12.793 72.578 12.7408 72.3386 12.7087L72.3993 11.7691H81.2957L81.235 12.7087Z" fill="url(#paint6_linear_328_153)"/>
<path d="M217.77 51C216.207 51 214.766 50.7505 213.445 50.2515C212.126 49.7425 211 49.0089 210.068 48.0508C209.155 47.1127 208.47 45.955 208.014 44.5777C207.558 43.1905 207.399 41.6685 207.537 40.0118C207.674 38.365 208.086 36.8431 208.773 35.4458C209.471 34.0386 210.383 32.821 211.51 31.7931C212.616 30.7851 213.907 30.0066 215.385 29.4577C216.864 28.8988 218.419 28.6194 220.052 28.6194C221.233 28.6194 222.298 28.7641 223.245 29.0535C224.193 29.333 224.988 29.6523 225.629 30.0116L226.629 29.1882H227.936L227.426 36.9429H226.104C225.55 34.5775 224.793 32.841 223.833 31.7332C222.874 30.6254 221.638 30.0715 220.126 30.0715C218.243 30.0715 216.742 30.8998 215.623 32.5566C214.505 34.2033 213.821 36.5187 213.573 39.5028C213.433 41.1894 213.478 42.6316 213.709 43.8292C213.951 45.0168 214.312 45.9749 214.792 46.7035C215.31 47.462 215.949 48.0209 216.711 48.3802C217.473 48.7295 218.335 48.9041 219.296 48.9041C220.698 48.9041 221.976 48.5249 223.131 47.7664C224.296 47.0079 225.393 45.8602 226.422 44.3232L227.649 45.1017C227.145 45.9799 226.589 46.7684 225.98 47.467C225.372 48.1556 224.687 48.7494 223.924 49.2484C223.087 49.7974 222.175 50.2265 221.188 50.5359C220.211 50.8453 219.072 51 217.77 51Z" fill="url(#paint7_linear_328_153)"/>
<path d="M204.643 50.4311H192.82L192.917 49.2634C193.19 49.2435 193.588 49.2135 194.112 49.1736C194.646 49.1337 195.016 49.0738 195.223 48.9939C195.606 48.8442 195.873 48.6496 196.023 48.4101C196.184 48.1606 196.28 47.8462 196.312 47.467L197.564 32.4069C197.592 32.0675 197.552 31.7681 197.443 31.5086C197.335 31.2492 197.097 31.0396 196.73 30.8799C196.498 30.7801 196.15 30.6803 195.688 30.5805C195.226 30.4707 194.827 30.3958 194.49 30.3559L194.587 29.1882H206.409L206.312 30.3559C206.009 30.3859 205.63 30.4308 205.174 30.4907C204.72 30.5406 204.333 30.6154 204.014 30.7152C203.613 30.845 203.335 31.0495 203.182 31.329C203.029 31.5985 202.938 31.9078 202.909 32.2572L201.658 47.3023C201.628 47.6616 201.668 47.971 201.776 48.2305C201.896 48.48 202.139 48.6846 202.506 48.8442C202.709 48.9341 203.047 49.0239 203.52 49.1137C204.005 49.1936 204.411 49.2435 204.74 49.2634L204.643 50.4311Z" fill="url(#paint8_linear_328_153)"/>
<path d="M192.925 35.2662H191.768C191.533 34.358 191.113 33.3849 190.509 32.347C189.914 31.309 189.33 30.7501 188.755 30.6703C188.438 30.6304 188.046 30.5954 187.577 30.5655C187.109 30.5356 186.705 30.5206 186.364 30.5206H185.658L184.273 47.1825C184.243 47.5418 184.281 47.8612 184.388 48.1406C184.496 48.4101 184.734 48.6247 185.101 48.7844C185.324 48.8742 185.671 48.969 186.144 49.0688C186.627 49.1586 187.037 49.2235 187.374 49.2634L187.277 50.4311H175.395L175.492 49.2634C175.785 49.2335 176.194 49.1936 176.719 49.1437C177.254 49.0838 177.621 49.0139 177.818 48.9341C178.222 48.7744 178.5 48.5598 178.652 48.2903C178.805 48.0209 178.897 47.7015 178.927 47.3322L180.325 30.5206H179.619C179.279 30.5206 178.872 30.5356 178.399 30.5655C177.926 30.5954 177.527 30.6304 177.203 30.6703C176.616 30.7501 175.934 31.309 175.156 32.347C174.389 33.3849 173.812 34.358 173.426 35.2662H172.27L172.775 29.1882H193.43L192.925 35.2662Z" fill="url(#paint9_linear_328_153)"/>
<path d="M160.761 51C159.459 51 158.256 50.8403 157.151 50.5209C156.056 50.2016 155.136 49.8223 154.391 49.3832L153.268 50.4311H151.991L152.434 42.7513H153.726C153.956 43.4799 154.262 44.2484 154.646 45.0568C155.029 45.8652 155.49 46.5887 156.028 47.2275C156.583 47.8961 157.219 48.44 157.935 48.8592C158.661 49.2784 159.53 49.488 160.541 49.488C161.903 49.488 162.972 49.1586 163.748 48.4999C164.535 47.8313 164.97 46.9929 165.054 45.9849C165.123 45.1566 164.87 44.4629 164.296 43.904C163.732 43.3352 162.821 42.8461 161.563 42.437C160.745 42.1675 159.989 41.918 159.297 41.6884C158.615 41.4589 157.974 41.2244 157.373 40.9848C155.988 40.416 154.989 39.6026 154.376 38.5447C153.773 37.4868 153.526 36.3041 153.635 34.9967C153.704 34.1684 153.95 33.3749 154.373 32.6164C154.798 31.848 155.381 31.1593 156.123 30.5505C156.831 29.9817 157.716 29.5176 158.777 29.1583C159.838 28.799 160.975 28.6194 162.187 28.6194C163.369 28.6194 164.461 28.784 165.466 29.1134C166.471 29.4328 167.255 29.7571 167.818 30.0865L168.809 29.1882H170.116L169.634 36.4339H168.342C168.106 35.6554 167.817 34.862 167.473 34.0536C167.141 33.2352 166.772 32.5566 166.366 32.0176C165.923 31.4388 165.396 30.9797 164.783 30.6404C164.171 30.2911 163.434 30.1164 162.573 30.1164C161.492 30.1164 160.58 30.4208 159.838 31.0296C159.107 31.6384 158.703 32.3919 158.629 33.2901C158.558 34.1384 158.796 34.832 159.342 35.371C159.898 35.9099 160.79 36.384 162.018 36.7932C162.738 37.0427 163.474 37.2922 164.224 37.5417C164.974 37.7912 165.64 38.0307 166.222 38.2602C167.628 38.8191 168.665 39.5926 169.334 40.5806C170.014 41.5587 170.293 42.7763 170.172 44.2334C170.096 45.1516 169.806 46.0398 169.304 46.8981C168.802 47.7564 168.162 48.47 167.384 49.0389C166.53 49.6676 165.564 50.1516 164.484 50.491C163.404 50.8303 162.163 51 160.761 51Z" fill="url(#paint10_linear_328_153)"/>
<path d="M149.882 34.6075H148.74C148.517 33.7991 148.084 32.9807 147.442 32.1524C146.8 31.324 146.134 30.835 145.446 30.6853C145.151 30.6154 144.734 30.5755 144.194 30.5655C143.665 30.5455 143.225 30.5356 142.874 30.5356H139.78L139.098 38.7393H141.291C141.842 38.7393 142.348 38.6744 142.809 38.5447C143.271 38.4149 143.702 38.1654 144.103 37.7962C144.353 37.5666 144.617 37.1624 144.895 36.5836C145.184 36.0047 145.381 35.5007 145.487 35.0716H146.628L145.891 43.934H144.75C144.724 43.5148 144.613 42.9909 144.415 42.3621C144.227 41.7234 144.034 41.2842 143.833 41.0447C143.533 40.6854 143.162 40.4409 142.722 40.3112C142.283 40.1715 141.768 40.1016 141.178 40.1016H138.984L138.475 46.2244C138.422 46.8632 138.425 47.3722 138.483 47.7514C138.553 48.1207 138.709 48.4051 138.953 48.6047C139.188 48.7943 139.518 48.9191 139.944 48.979C140.379 49.0389 140.973 49.0688 141.724 49.0688C142.074 49.0688 142.495 49.0638 142.987 49.0538C143.478 49.0438 143.911 49.0139 144.286 48.964C144.711 48.9141 145.108 48.8393 145.477 48.7395C145.855 48.6397 146.143 48.4949 146.339 48.3053C146.86 47.8163 147.463 47.0728 148.147 46.0747C148.831 45.0667 149.29 44.3132 149.522 43.8142H150.618L149.662 50.4311H129.668L129.765 49.2634C130.047 49.2435 130.431 49.2035 130.917 49.1437C131.402 49.0838 131.749 49.0139 131.956 48.9341C132.349 48.7744 132.621 48.5748 132.772 48.3353C132.923 48.0858 133.014 47.7714 133.045 47.3921L134.292 32.4069C134.321 32.0476 134.291 31.7532 134.2 31.5236C134.109 31.2841 133.862 31.0695 133.457 30.8799C133.207 30.7601 132.85 30.6503 132.388 30.5505C131.925 30.4507 131.575 30.3859 131.338 30.3559L131.435 29.1882H150.332L149.882 34.6075Z" fill="url(#paint11_linear_328_153)"/>
<path d="M129.49 30.3559C129.085 30.4058 128.74 30.4557 128.456 30.5056C128.171 30.5555 127.85 30.6254 127.492 30.7152C127.072 30.825 126.791 31.0196 126.647 31.2991C126.514 31.5785 126.432 31.8979 126.402 32.2572L125.429 43.9639C125.339 45.0418 125.037 46.0298 124.521 46.928C124.016 47.8263 123.357 48.5798 122.546 49.1886C121.725 49.7874 120.826 50.2365 119.85 50.5359C118.873 50.8453 117.843 51 116.762 51C114.889 51 113.414 50.5509 112.337 49.6526C111.27 48.7544 110.802 47.5219 110.932 45.955C111.009 45.0268 111.334 44.2583 111.905 43.6496C112.487 43.0408 113.238 42.7364 114.159 42.7364C115.031 42.7364 115.7 42.9909 116.169 43.4998C116.647 44.0088 116.855 44.6376 116.793 45.3861C116.74 46.0248 116.465 46.6187 115.969 47.1676C115.483 47.7065 114.936 48.2055 114.327 48.6646L114.311 48.8592C114.385 49.0588 114.566 49.2285 114.855 49.3682C115.143 49.5079 115.443 49.5778 115.753 49.5778C116.955 49.5778 117.932 49.1486 118.685 48.2903C119.447 47.432 119.9 46.1346 120.045 44.3981L121.042 32.4069C121.072 32.0476 121.042 31.7482 120.952 31.5086C120.861 31.2691 120.613 31.0595 120.208 30.8799C119.918 30.7501 119.562 30.6404 119.138 30.5505C118.725 30.4607 118.38 30.3958 118.103 30.3559L118.2 29.1882H129.587L129.49 30.3559Z" fill="url(#paint12_linear_328_153)"/>
<path d="M111.131 50.4311H99.5189L99.616 49.2634C100.16 49.2235 100.804 49.1287 101.547 48.979C102.292 48.8193 102.673 48.6247 102.693 48.3951C102.699 48.3153 102.697 48.2255 102.685 48.1257C102.683 48.0259 102.654 47.8911 102.598 47.7215L101.147 43.3202H93.786C93.5817 43.7294 93.3516 44.2084 93.0956 44.7574C92.8497 45.3063 92.6338 45.7953 92.4478 46.2244C92.2111 46.7833 92.0623 47.1875 92.0015 47.437C91.9507 47.6865 91.9212 47.8612 91.9129 47.961C91.8863 48.2804 92.1038 48.5548 92.5654 48.7844C93.0379 49.0039 93.8358 49.1636 94.9592 49.2634L94.862 50.4311H86.1193L86.2164 49.2634C86.5485 49.2435 86.9232 49.1936 87.3404 49.1137C87.7685 49.0239 88.109 48.9041 88.3618 48.7544C88.7923 48.5149 89.1623 48.2205 89.4717 47.8712C89.7912 47.5219 90.066 47.1077 90.2961 46.6286C91.6911 43.8242 93.0864 41.0148 94.4822 38.2004C95.8879 35.3859 97.4379 32.2821 99.1322 28.8888H102.137C103.699 33.6993 104.92 37.5018 105.8 40.2962C106.679 43.0907 107.433 45.4061 108.061 47.2424C108.166 47.5418 108.309 47.8163 108.488 48.0658C108.669 48.3053 108.935 48.5349 109.287 48.7544C109.555 48.9141 109.87 49.0339 110.234 49.1137C110.598 49.1936 110.929 49.2435 111.228 49.2634L111.131 50.4311ZM100.654 41.8381L98.1995 34.1434L94.5101 41.8381H100.654Z" fill="url(#paint13_linear_328_153)"/>
<path d="M85.8038 50.4311H74.2519L74.349 49.2634C74.692 49.2335 75.1117 49.1836 75.6083 49.1137C76.1148 49.0438 76.4615 48.969 76.6484 48.8892C77.0314 48.7395 77.3138 48.5349 77.4957 48.2754C77.6775 48.0159 77.785 47.6865 77.8182 47.2873L79.1379 31.4188L70.2546 50.0868H68.3619C68.2991 49.7574 68.1282 49.1037 67.849 48.1257C67.5798 47.1476 67.3595 46.3642 67.1882 45.7753L63.0091 31.1793L61.9347 44.0987C61.8318 45.3362 61.8335 46.2793 61.9398 46.928C62.0569 47.5668 62.2883 48.0359 62.6339 48.3353C62.8669 48.5448 63.2959 48.7444 63.9211 48.9341C64.5563 49.1237 65.0028 49.2335 65.2607 49.2634L65.1636 50.4311H56.0002L56.0973 49.2634C56.3501 49.2335 56.7611 49.1686 57.3303 49.0688C57.9102 48.959 58.3913 48.7744 58.7734 48.5149C59.1972 48.2355 59.5066 47.7664 59.7016 47.1077C59.8974 46.439 60.0463 45.4909 60.1484 44.2633L61.0237 33.7392C61.0768 33.1005 61.0407 32.5715 60.9153 32.1524C60.7907 31.7232 60.5786 31.3839 60.2789 31.1344C59.904 30.825 59.51 30.6254 59.0969 30.5356C58.6837 30.4457 58.2631 30.3859 57.835 30.3559L57.9321 29.1882H67.7414L71.8326 43.2154L77.2115 31.823C77.3966 31.4038 77.5833 30.9048 77.7716 30.326C77.96 29.7471 78.0666 29.3679 78.0916 29.1882H87.5404L87.4433 30.3559C87.1211 30.3759 86.7823 30.4158 86.4268 30.4757C86.0713 30.5356 85.7292 30.6154 85.4004 30.7152C84.9991 30.845 84.7217 31.0495 84.5683 31.329C84.4248 31.6084 84.339 31.9178 84.3108 32.2572L83.0596 47.3023C83.0297 47.6616 83.0645 47.966 83.1639 48.2155C83.2742 48.455 83.5171 48.6646 83.8928 48.8442C84.0856 48.9341 84.404 49.0189 84.848 49.0987C85.3021 49.1786 85.653 49.2335 85.9009 49.2634L85.8038 50.4311Z" fill="url(#paint14_linear_328_153)"/>
<defs>
<linearGradient id="paint0_linear_328_153" x1="141.968" y1="51" x2="141.968" y2="1" gradientUnits="userSpaceOnUse">
<stop stop-color="#FFAE00"/>
<stop offset="0.455" stop-color="#F2CC0B"/>
<stop offset="1" stop-color="#E6C700"/>
</linearGradient>
<linearGradient id="paint1_linear_328_153" x1="141.968" y1="51" x2="141.968" y2="1" gradientUnits="userSpaceOnUse">
<stop stop-color="#FFAE00"/>
<stop offset="0.455" stop-color="#F2CC0B"/>
<stop offset="1" stop-color="#E6C700"/>
</linearGradient>
<linearGradient id="paint2_linear_328_153" x1="141.968" y1="51" x2="141.968" y2="1" gradientUnits="userSpaceOnUse">
<stop stop-color="#FFAE00"/>
<stop offset="0.455" stop-color="#F2CC0B"/>
<stop offset="1" stop-color="#E6C700"/>
</linearGradient>
<linearGradient id="paint3_linear_328_153" x1="141.968" y1="51" x2="141.968" y2="1" gradientUnits="userSpaceOnUse">
<stop stop-color="#FFAE00"/>
<stop offset="0.455" stop-color="#F2CC0B"/>
<stop offset="1" stop-color="#E6C700"/>
</linearGradient>
<linearGradient id="paint4_linear_328_153" x1="141.968" y1="51" x2="141.968" y2="1" gradientUnits="userSpaceOnUse">
<stop stop-color="#FFAE00"/>
<stop offset="0.455" stop-color="#F2CC0B"/>
<stop offset="1" stop-color="#E6C700"/>
</linearGradient>
<linearGradient id="paint5_linear_328_153" x1="141.968" y1="51" x2="141.968" y2="1" gradientUnits="userSpaceOnUse">
<stop stop-color="#FFAE00"/>
<stop offset="0.455" stop-color="#F2CC0B"/>
<stop offset="1" stop-color="#E6C700"/>
</linearGradient>
<linearGradient id="paint6_linear_328_153" x1="141.968" y1="51" x2="141.968" y2="1" gradientUnits="userSpaceOnUse">
<stop stop-color="#FFAE00"/>
<stop offset="0.455" stop-color="#F2CC0B"/>
<stop offset="1" stop-color="#E6C700"/>
</linearGradient>
<linearGradient id="paint7_linear_328_153" x1="141.968" y1="51" x2="141.968" y2="1" gradientUnits="userSpaceOnUse">
<stop stop-color="#FFAE00"/>
<stop offset="0.455" stop-color="#F2CC0B"/>
<stop offset="1" stop-color="#E6C700"/>
</linearGradient>
<linearGradient id="paint8_linear_328_153" x1="141.968" y1="51" x2="141.968" y2="1" gradientUnits="userSpaceOnUse">
<stop stop-color="#FFAE00"/>
<stop offset="0.455" stop-color="#F2CC0B"/>
<stop offset="1" stop-color="#E6C700"/>
</linearGradient>
<linearGradient id="paint9_linear_328_153" x1="141.968" y1="51" x2="141.968" y2="1" gradientUnits="userSpaceOnUse">
<stop stop-color="#FFAE00"/>
<stop offset="0.455" stop-color="#F2CC0B"/>
<stop offset="1" stop-color="#E6C700"/>
</linearGradient>
<linearGradient id="paint10_linear_328_153" x1="141.968" y1="51" x2="141.968" y2="1" gradientUnits="userSpaceOnUse">
<stop stop-color="#FFAE00"/>
<stop offset="0.455" stop-color="#F2CC0B"/>
<stop offset="1" stop-color="#E6C700"/>
</linearGradient>
<linearGradient id="paint11_linear_328_153" x1="141.968" y1="51" x2="141.968" y2="1" gradientUnits="userSpaceOnUse">
<stop stop-color="#FFAE00"/>
<stop offset="0.455" stop-color="#F2CC0B"/>
<stop offset="1" stop-color="#E6C700"/>
</linearGradient>
<linearGradient id="paint12_linear_328_153" x1="141.968" y1="51" x2="141.968" y2="1" gradientUnits="userSpaceOnUse">
<stop stop-color="#FFAE00"/>
<stop offset="0.455" stop-color="#F2CC0B"/>
<stop offset="1" stop-color="#E6C700"/>
</linearGradient>
<linearGradient id="paint13_linear_328_153" x1="141.968" y1="51" x2="141.968" y2="1" gradientUnits="userSpaceOnUse">
<stop stop-color="#FFAE00"/>
<stop offset="0.455" stop-color="#F2CC0B"/>
<stop offset="1" stop-color="#E6C700"/>
</linearGradient>
<linearGradient id="paint14_linear_328_153" x1="141.968" y1="51" x2="141.968" y2="1" gradientUnits="userSpaceOnUse">
<stop stop-color="#FFAE00"/>
<stop offset="0.455" stop-color="#F2CC0B"/>
<stop offset="1" stop-color="#E6C700"/>
</linearGradient>
</defs>
</svg>
