<?xml version="1.0" encoding="UTF-8"?>
<!-- Generator: visioncortex VTracer 0.6.3 -->
<svg version="1.1" xmlns="http://www.w3.org/2000/svg" width="1280" height="358">
<path d="M0 0 C1.15 -0.01 2.31 -0.03 3.5 -0.04 C6.56 0.19 6.56 0.19 9.56 2.19 C9.99 4.88 9.99 4.88 10.07 8.35 C10.11 9.64 10.14 10.94 10.18 12.27 C10.21 13.69 10.23 15.11 10.26 16.53 C10.29 17.98 10.33 19.43 10.37 20.88 C10.47 24.7 10.56 28.52 10.64 32.34 C10.77 38.45 10.92 44.57 11.08 50.68 C11.13 52.82 11.18 54.96 11.22 57.1 C11.25 58.4 11.28 59.69 11.31 61.03 C11.34 62.17 11.36 63.31 11.39 64.49 C11.39 67.16 11.39 67.16 12.56 69.19 C12.7 70.9 12.77 72.62 12.81 74.34 C12.84 75.41 12.87 76.49 12.9 77.59 C12.95 79.35 12.95 79.35 12.99 81.13 C13.07 83.6 13.14 86.06 13.21 88.52 C13.33 92.41 13.44 96.3 13.54 100.2 C13.63 103.95 13.75 107.7 13.87 111.45 C13.9 113.18 13.9 113.18 13.94 114.95 C14.16 121.33 14.76 126.41 17.56 132.19 C18.22 132.52 18.88 132.85 19.56 133.19 C19.56 133.85 19.56 134.51 19.56 135.19 C20.33 135.13 21.09 135.06 21.88 135 C24.56 135.19 24.56 135.19 26.44 136.38 C27.56 138.19 27.56 138.19 27.31 140.75 C26.56 143.19 26.56 143.19 25.56 145.19 C6.75 145.19 -12.06 145.19 -31.44 145.19 C-31.44 138.19 -31.44 138.19 -29.44 136.19 C-26.12 135.31 -22.77 134.65 -19.41 133.97 C-16.34 133.43 -16.34 133.43 -14.44 131.19 C-14.32 128.76 -14.32 126.45 -14.43 124.03 C-14.46 122.97 -14.46 122.97 -14.49 121.89 C-14.54 120.4 -14.6 118.91 -14.66 117.42 C-14.75 115.13 -14.82 112.84 -14.9 110.55 C-14.95 109.11 -15 107.66 -15.05 106.21 C-15.07 105.53 -15.1 104.84 -15.12 104.13 C-14.99 100.87 -14.99 100.87 -16.44 98.19 C-20.96 97.94 -25.49 97.96 -30.02 97.95 C-32.3 97.94 -34.57 97.91 -36.85 97.88 C-38.29 97.87 -39.74 97.86 -41.18 97.86 C-42.5 97.85 -43.82 97.84 -45.18 97.83 C-48.39 97.91 -48.39 97.91 -50.33 99.58 C-51.5 101.2 -51.5 101.2 -52.44 103.19 C-53.1 103.19 -53.76 103.19 -54.44 103.19 C-54.63 104.05 -54.63 104.05 -54.82 104.93 C-55.44 107.19 -56.25 109.15 -57.25 111.26 C-57.6 112.01 -57.96 112.76 -58.32 113.53 C-58.69 114.31 -59.06 115.08 -59.44 115.88 C-59.81 116.66 -60.17 117.44 -60.55 118.25 C-63.3 124.05 -63.3 124.05 -64.44 125.19 C-64.77 128.65 -64.77 128.65 -64.44 132.19 C-61.52 134.13 -59.81 134.64 -56.44 135.19 C-56.44 135.85 -56.44 136.51 -56.44 137.19 C-55.12 137.19 -53.8 137.19 -52.44 137.19 C-53.31 144.06 -53.31 144.06 -54.44 145.19 C-55.78 145.28 -57.12 145.31 -58.47 145.31 C-59.34 145.31 -60.2 145.31 -61.1 145.31 C-62.06 145.31 -63.02 145.3 -64.01 145.3 C-65.01 145.3 -66.02 145.3 -67.05 145.3 C-70.39 145.3 -73.73 145.29 -77.07 145.29 C-79.37 145.28 -81.68 145.28 -83.99 145.28 C-90.08 145.28 -96.17 145.27 -102.25 145.26 C-108.46 145.25 -114.67 145.24 -120.87 145.24 C-133.06 145.23 -145.25 145.21 -157.44 145.19 C-158.33 142.3 -158.54 141.46 -157.41 138.54 C-154.78 135.41 -152.86 135.26 -148.88 134.62 C-144.44 134.16 -144.44 134.16 -141.22 131.54 C-140.96 130.76 -140.7 129.99 -140.44 129.19 C-139.94 128.12 -139.44 127.06 -138.93 125.96 C-137.26 122.02 -136.4 118.05 -135.56 113.88 C-134.23 107.58 -132.75 101.38 -131 95.19 C-130.79 94.44 -130.58 93.7 -130.36 92.93 C-129.52 89.95 -128.66 86.98 -127.81 84 C-124.94 74.03 -122.43 64.03 -120.18 53.9 C-118.94 48.33 -117.56 42.82 -116 37.33 C-115.2 34.3 -114.78 31.3 -114.44 28.19 C-116.81 32.06 -118.98 36 -121.12 40 C-121.75 41.16 -122.37 42.32 -123.01 43.52 C-123.48 44.4 -123.95 45.28 -124.44 46.19 C-125.1 46.19 -125.76 46.19 -126.44 46.19 C-126.61 47.02 -126.61 47.02 -126.78 47.86 C-129.84 58.69 -137.15 69.28 -142.44 79.19 C-143.1 79.19 -143.76 79.19 -144.44 79.19 C-144.61 80.02 -144.61 80.02 -144.78 80.86 C-147.84 91.69 -155.15 102.28 -160.44 112.19 C-161.1 112.19 -161.76 112.19 -162.44 112.19 C-162.55 112.74 -162.66 113.28 -162.77 113.85 C-165.06 121.91 -171.35 136.1 -177.44 142.19 C-179.1 142.29 -180.77 142.32 -182.44 142.31 C-183.35 142.32 -184.25 142.32 -185.19 142.32 C-187.44 142.19 -187.44 142.19 -188.44 141.19 C-188.58 139.21 -188.66 137.23 -188.72 135.25 C-188.77 133.45 -188.77 133.45 -188.83 131.6 C-188.87 130.33 -188.9 129.06 -188.94 127.75 C-189.01 125.25 -189.08 122.75 -189.16 120.25 C-189.19 119.14 -189.22 118.03 -189.25 116.88 C-189.26 114.22 -189.26 114.22 -190.44 112.19 C-190.57 109.52 -190.63 106.89 -190.66 104.22 C-190.67 103.4 -190.68 102.58 -190.69 101.73 C-190.73 99 -190.76 96.27 -190.79 93.54 C-190.81 91.65 -190.84 89.75 -190.86 87.86 C-190.91 83.89 -190.95 79.91 -191 75.94 C-191.05 70.85 -191.11 65.75 -191.18 60.66 C-191.23 56.75 -191.28 52.84 -191.32 48.92 C-191.34 47.05 -191.36 45.17 -191.39 43.29 C-191.42 40.66 -191.45 38.04 -191.48 35.41 C-191.49 34.64 -191.5 33.86 -191.51 33.06 C-191.54 29.62 -191.54 26.47 -190.44 23.19 C-191.1 23.19 -191.76 23.19 -192.44 23.19 C-192.63 24.18 -192.63 24.18 -192.82 25.2 C-193.57 28.82 -194.4 32.41 -195.25 36 C-195.43 36.74 -195.6 37.49 -195.78 38.25 C-197.3 44.67 -198.88 51.07 -200.5 57.46 C-201.1 59.83 -201.68 62.2 -202.25 64.57 C-203.63 70.31 -205.31 75.68 -207.44 81.19 C-207.8 82.85 -208.13 84.52 -208.44 86.19 C-209.5 92.03 -210.82 97.55 -212.78 103.17 C-213.65 105.82 -214.08 108.42 -214.44 111.19 C-214.72 113.04 -214.72 113.04 -215 114.94 C-215.69 120.65 -216.27 126.69 -214.44 132.19 C-212.46 132.91 -210.45 133.57 -208.44 134.19 C-206.75 135.14 -205.07 136.13 -203.44 137.19 C-203.93 141.15 -203.93 141.15 -204.44 145.19 C-219.62 145.19 -234.8 145.19 -250.44 145.19 C-251.44 141.19 -251.44 141.19 -250.62 138.62 C-247.3 134.92 -243.14 134.45 -238.44 133.19 C-233.37 131.27 -231.81 127.84 -229.63 123.12 C-225.97 114.09 -223.77 104.63 -221.44 95.19 C-220.94 93.19 -220.44 91.19 -219.94 89.19 C-219.69 88.2 -219.44 87.21 -219.19 86.19 C-216.94 77.19 -216.94 77.19 -216.19 74.2 C-215.68 72.16 -215.17 70.12 -214.67 68.08 C-213.19 62.08 -211.59 56.13 -209.88 50.19 C-208.1 43.95 -206.69 37.81 -205.8 31.38 C-205.44 29.19 -205.44 29.19 -204.44 27.19 C-204.06 20.41 -204.06 20.41 -206.44 14.19 C-209.31 12.07 -211.93 10.84 -215.44 10.19 C-215.44 7.55 -215.44 4.91 -215.44 2.19 C-213.08 1.01 -211.66 1.05 -209.04 1.04 C-208.12 1.04 -207.21 1.03 -206.27 1.02 C-205.29 1.02 -204.3 1.02 -203.29 1.02 C-202.27 1.02 -201.26 1.01 -200.22 1.01 C-198.08 1 -195.94 1 -193.8 1 C-190.52 1 -187.24 0.98 -183.96 0.96 C-181.88 0.96 -179.8 0.96 -177.72 0.96 C-176.74 0.95 -175.75 0.94 -174.74 0.94 C-173.83 0.94 -172.91 0.94 -171.97 0.94 C-171.16 0.94 -170.36 0.94 -169.53 0.94 C-167.44 1.19 -167.44 1.19 -164.44 3.19 C-164.05 5.03 -164.05 5.03 -164.04 7.31 C-164.02 8.17 -164.01 9.03 -164 9.91 C-164 10.86 -164 11.8 -164 12.77 C-163.98 13.75 -163.97 14.73 -163.96 15.74 C-163.93 17.87 -163.91 19.99 -163.9 22.12 C-163.86 27.69 -163.77 33.25 -163.69 38.82 C-163.67 39.95 -163.65 41.07 -163.64 42.23 C-163.46 52.92 -162.98 63.58 -162.38 74.25 C-162.33 75.07 -162.28 75.89 -162.23 76.74 C-161.98 81.22 -161.71 85.71 -161.44 90.19 C-156.55 85.3 -153.7 76.96 -150.45 70.84 C-148.45 67.07 -146.42 63.31 -144.38 59.56 C-143.66 58.25 -143.66 58.25 -142.93 56.91 C-141.88 55 -140.84 53.09 -139.79 51.18 C-137.21 46.44 -134.67 41.69 -132.29 36.84 C-131.93 36.11 -131.57 35.38 -131.19 34.62 C-130.49 33.19 -129.79 31.75 -129.1 30.3 C-126.66 25.3 -126.66 25.3 -124.44 24.19 C-123.21 21.96 -123.21 21.96 -122.06 19.25 C-121.63 18.26 -121.19 17.28 -120.74 16.26 C-119.19 12.6 -117.73 8.91 -116.33 5.18 C-115.44 3.19 -115.44 3.19 -113.44 1.19 C-111.43 0.94 -111.43 0.94 -108.93 0.94 C-107.99 0.94 -107.06 0.94 -106.1 0.94 C-105.08 0.94 -104.07 0.95 -103.03 0.96 C-102 0.96 -100.96 0.96 -99.89 0.96 C-97.7 0.96 -95.51 0.97 -93.32 0.98 C-89.95 1 -86.59 1 -83.22 1 C-81.1 1.01 -78.97 1.01 -76.84 1.02 C-75.83 1.02 -74.82 1.02 -73.78 1.02 C-72.84 1.03 -71.91 1.04 -70.95 1.04 C-70.12 1.05 -69.3 1.05 -68.45 1.05 C-66.44 1.19 -66.44 1.19 -64.44 2.19 C-64.77 4.83 -65.1 7.47 -65.44 10.19 C-66.47 10.46 -67.51 10.72 -68.58 11 C-69.95 11.39 -71.32 11.79 -72.69 12.19 C-73.37 12.36 -74.05 12.53 -74.75 12.71 C-78.66 13.88 -80.79 15.06 -82.77 18.71 C-84.81 23.58 -85.88 28.66 -86.94 33.81 C-87.36 35.78 -87.79 37.76 -88.22 39.73 C-88.42 40.67 -88.63 41.62 -88.84 42.59 C-89.58 45.83 -90.48 49.01 -91.44 52.19 C-93.21 58.14 -94.59 64.13 -95.94 70.19 C-97.53 77.35 -99.3 84.38 -101.4 91.41 C-103.04 97.38 -104.36 103.42 -105.69 109.46 C-106.55 113.37 -107.42 117.24 -108.58 121.07 C-109.33 123.78 -109.66 125.84 -109.56 128.62 C-109.52 129.8 -109.48 130.98 -109.44 132.19 C-102.74 135.61 -97.32 136.18 -90 134.31 C-80.59 129.63 -74.79 120.34 -70.44 111.19 C-69.65 109.62 -68.86 108.06 -68.06 106.5 C-67.53 105.41 -66.99 104.31 -66.44 103.19 C-65.78 103.19 -65.12 103.19 -64.44 103.19 C-64.1 101.95 -64.1 101.95 -63.75 100.69 C-62.42 97.14 -60.73 94.38 -58.68 91.22 C-56.91 88.33 -55.69 85.34 -54.44 82.19 C-53.78 82.19 -53.12 82.19 -52.44 82.19 C-52.06 80.91 -52.06 80.91 -51.67 79.61 C-50.35 75.94 -48.66 72.85 -46.69 69.5 C-45.97 68.26 -45.24 67.02 -44.52 65.79 C-44.17 65.18 -43.81 64.57 -43.45 63.94 C-42.02 61.47 -40.67 58.95 -39.31 56.44 C-37.39 52.87 -35.37 49.39 -33.25 45.94 C-31.49 43.06 -29.96 40.25 -28.69 37.12 C-27.44 34.19 -27.44 34.19 -25.44 33.19 C-24.32 31.29 -24.32 31.29 -23.25 28.94 C-20.17 22.58 -16.81 16.39 -13.44 10.19 C-12.95 9.27 -12.46 8.34 -11.95 7.39 C-11.51 6.58 -11.08 5.77 -10.62 4.94 C-10.25 4.23 -9.87 3.52 -9.48 2.8 C-7.21 -0.7 -3.81 0.02 0 0 Z M-112.44 22.19 C-112.77 23.84 -113.1 25.49 -113.44 27.19 C-112.78 26.86 -112.12 26.53 -111.44 26.19 C-111.77 24.87 -112.1 23.55 -112.44 22.19 Z M-118.44 27.19 C-117.44 29.19 -117.44 29.19 -117.44 29.19 Z M-18.44 41.19 C-22.48 45.77 -25.39 50.77 -28 56.25 C-30.15 60.64 -32.5 64.91 -34.85 69.19 C-36.79 72.5 -36.79 72.5 -37.44 76.19 C-38.1 76.19 -38.76 76.19 -39.44 76.19 C-41.78 80.39 -42.44 82.2 -42.44 87.19 C-33.86 87.19 -25.28 87.19 -16.44 87.19 C-16.36 71.8 -16.3 56.53 -17.44 41.19 C-17.77 41.19 -18.1 41.19 -18.44 41.19 Z M-127.44 43.19 C-127.11 44.18 -126.78 45.17 -126.44 46.19 C-126.11 45.2 -125.78 44.21 -125.44 43.19 C-126.1 43.19 -126.76 43.19 -127.44 43.19 Z M-40.44 74.19 C-39.44 76.19 -39.44 76.19 -39.44 76.19 Z M-145.44 76.19 C-145.11 77.18 -144.78 78.17 -144.44 79.19 C-144.11 78.2 -143.78 77.21 -143.44 76.19 C-144.1 76.19 -144.76 76.19 -145.44 76.19 Z M-189.44 95.19 C-189.44 100.8 -189.44 106.41 -189.44 112.19 C-189.11 112.19 -188.78 112.19 -188.44 112.19 C-188.44 106.58 -188.44 100.97 -188.44 95.19 C-188.77 95.19 -189.1 95.19 -189.44 95.19 Z M-55.44 100.19 C-55.11 101.18 -54.78 102.17 -54.44 103.19 C-54.11 102.2 -53.78 101.21 -53.44 100.19 C-54.1 100.19 -54.76 100.19 -55.44 100.19 Z M-163.44 109.19 C-163.11 110.18 -162.78 111.17 -162.44 112.19 C-162.11 111.2 -161.78 110.21 -161.44 109.19 C-162.1 109.19 -162.76 109.19 -163.44 109.19 Z " fill="#000E84" transform="translate(643.4375,172.8125)"/>
<path d="M0 0 C5.38 0.38 8.46 1.15 13.18 3.97 C15.94 5.53 18.85 6.62 21.81 7.75 C27.65 10.01 33.36 12.48 39.06 15.06 C45.63 18.03 52.2 20.58 59.02 22.91 C62.21 24.08 65.11 25.52 68.1 27.11 C70.26 28.12 72.39 28.74 74.69 29.38 C80.08 30.88 84.95 33.23 89.99 35.64 C93.31 37.14 96.46 38.18 100 39 C100 39.66 100 40.32 100 41 C100.59 41.11 101.18 41.22 101.79 41.33 C102.58 41.49 103.37 41.65 104.19 41.81 C104.96 41.96 105.74 42.11 106.54 42.27 C109.37 43.11 111.47 44.48 114 46 C116.21 46.86 118.44 47.67 120.69 48.44 C126.53 50.47 132.29 52.63 138 55 C139.05 55.43 139.05 55.43 140.12 55.87 C158.56 63.49 158.56 63.49 167 68 C164.53 70.88 162.01 72.02 158.5 73.42 C157.4 73.86 156.29 74.31 155.15 74.77 C153.37 75.47 153.37 75.47 151.56 76.19 C150.35 76.67 149.14 77.16 147.89 77.66 C144.26 79.11 140.63 80.56 137 82 C135.06 82.77 133.12 83.55 131.19 84.32 C128.65 85.34 126.12 86.35 123.59 87.36 C116.05 90.37 108.57 93.48 101.11 96.66 C89.78 101.48 78.38 106.08 66.93 110.61 C59.62 113.52 52.36 116.53 45.14 119.65 C41.25 121.32 37.35 122.95 33.44 124.56 C32.37 125 32.37 125 31.29 125.45 C25.87 127.67 20.42 129.79 14.95 131.87 C11.28 133.28 7.65 134.78 4.02 136.3 C2 137 2 137 -1 137 C-0.75 132.36 -0.27 129.1 2.19 125.12 C4.91 120.58 6.59 115.88 8.25 110.88 C8.51 110.11 8.77 109.35 9.03 108.56 C10.5 104.04 11.43 99.73 12 95 C12.34 93.37 12.69 91.75 13.06 90.12 C14.06 85.32 14.16 80.89 14 76 C14.33 76 14.66 76 15 76 C15.03 73.33 15.05 70.67 15.06 68 C15.07 67.26 15.08 66.51 15.09 65.75 C15.12 59.01 14.4 52.6 13 46 C12.87 45.21 12.74 44.41 12.61 43.6 C10.5 30.84 7.05 17.31 0.85 5.88 C0 4 0 4 0 0 Z " fill="#FA0302" transform="translate(1,110)"/>
<path d="M0 0 C4.8 1.57 9.57 3.19 14.31 4.94 C15.25 5.28 16.19 5.62 17.16 5.96 C18.98 6.63 20.79 7.31 22.59 8 C37.69 13.54 54.98 16.21 71.06 16.06 C72.37 16.05 73.68 16.04 75.04 16.04 C76.5 16.02 76.5 16.02 78 16 C78 15.67 78 15.34 78 15 C85.59 14.34 93.18 13.68 101 13 C101 12.67 101 12.34 101 12 C101.99 11.77 102.99 11.54 104.01 11.3 C112.18 9.36 120.03 7.09 127.91 4.15 C128.93 3.77 129.95 3.39 131 3 C132.06 2.6 133.12 2.2 134.21 1.79 C137 1 137 1 140 2 C139.27 7.13 137.25 11.73 135.31 16.5 C134.99 17.32 134.66 18.14 134.32 18.99 C132.38 23.81 130.3 28.54 128.11 33.25 C124.85 40.24 121.91 47.35 119 54.5 C115.66 62.71 112.2 70.83 108.44 78.87 C106.13 83.88 104.01 88.97 101.88 94.06 C100.92 96.34 99.96 98.61 99 100.89 C98.51 102.06 98.02 103.22 97.51 104.42 C94.99 110.4 92.43 116.35 89.88 122.31 C89.38 123.48 88.88 124.64 88.36 125.84 C87.38 128.13 86.4 130.42 85.41 132.71 C83.25 137.74 81.1 142.78 78.94 147.81 C78.24 149.44 77.54 151.08 76.84 152.71 C76.23 154.14 75.61 155.57 75 157 C74 159.33 73 161.67 72 164 C69 163 69 163 67.54 160.66 C64.67 154.74 62.14 148.87 60 142.65 C58.67 139.13 56.95 135.87 55.22 132.53 C53.95 129.9 52.96 127.26 52 124.5 C50.39 119.89 48.39 115.66 46.15 111.33 C44.82 108.64 43.81 105.93 42.8 103.11 C41.85 100.62 40.75 98.23 39.62 95.81 C37.74 91.74 36.07 87.64 34.5 83.44 C33.02 79.51 31.45 75.78 29.5 72.06 C26.84 66.95 25.06 61.62 23.18 56.18 C22.06 53.15 20.75 50.68 19.04 47.98 C16.94 43.97 15.67 39.58 14.25 35.3 C13.09 32.24 11.7 29.78 10 27 C9.17 24.97 8.38 22.93 7.62 20.88 C5.63 15.53 3.4 10.38 0.92 5.24 C0 3 0 3 0 0 Z " fill="#FA0302" transform="translate(112,0)"/>
<path d="M0 0 C1.32 0 2.64 0 4 0 C4.81 1.93 5.63 3.86 6.44 5.79 C7.15 7.49 7.87 9.19 8.59 10.9 C10.43 15.27 12.27 19.65 14.1 24.04 C16.99 30.95 19.88 37.84 23.06 44.62 C26.66 52.3 29.81 60.15 33 68 C35.5 74.13 38.07 80.19 40.88 86.19 C44.53 94.01 47.75 102 51 110 C53.5 116.13 56.07 122.19 58.88 128.19 C64.16 139.54 68.89 151.17 73 163 C69.28 162.38 66.18 161.3 62.75 159.75 C55.65 156.72 48.36 154.6 40.94 152.55 C39.17 152.05 37.41 151.49 35.66 150.92 C30.86 149.71 26.11 149.33 21.19 148.94 C19.31 148.78 17.42 148.63 15.54 148.46 C14.72 148.4 13.89 148.33 13.04 148.27 C11 148 11 148 9 147 C7 146.9 5 146.87 3 146.88 C1.93 146.87 0.86 146.87 -0.25 146.87 C-2.96 146.81 -2.96 146.81 -5 148 C-6.52 148.2 -8.05 148.34 -9.58 148.46 C-10.49 148.54 -11.41 148.62 -12.35 148.7 C-14.27 148.86 -16.19 149.01 -18.11 149.16 C-23.05 149.59 -27.32 150.24 -32 152 C-34.35 152.59 -36.71 153.18 -39.06 153.75 C-45.47 155.38 -51.21 157.76 -57.17 160.67 C-60.42 162.2 -63.51 163.19 -67 164 C-67 157.14 -65.56 152.76 -62.39 146.73 C-59.96 141.95 -58.02 136.96 -56 132 C-53.42 125.75 -50.8 119.52 -48.03 113.34 C-46.81 110.58 -45.66 107.79 -44.5 105 C-42.74 100.75 -40.92 96.54 -39.03 92.34 C-37.81 89.58 -36.66 86.79 -35.5 84 C-33.74 79.75 -31.92 75.54 -30.03 71.34 C-28.81 68.58 -27.66 65.79 -26.5 63 C-24.74 58.75 -22.92 54.54 -21.03 50.34 C-19.81 47.58 -18.66 44.79 -17.5 42 C-15.74 37.75 -13.92 33.54 -12.03 29.34 C-10.37 25.57 -8.81 21.74 -7.23 17.93 C-6.13 15.31 -4.99 12.71 -3.81 10.12 C-2.32 6.81 -1.07 3.48 0 0 Z " fill="#FA0302" transform="translate(180,193)"/>
<path d="M0 0 C0.33 0.66 0.66 1.32 1 2 C0.08 3.9 -0.85 5.8 -1.82 7.68 C-5.63 15.2 -7.97 23.07 -10.17 31.19 C-11 34 -11 34 -12 35 C-12.37 37.33 -12.7 39.66 -13 42 C-13.89 48.89 -13.89 48.89 -15 50 C-16.31 64.53 -17.21 79.88 -13 94 C-12.72 95.32 -12.44 96.64 -12.18 97.96 C-10.89 103.82 -9.02 109.45 -7.12 115.12 C-6.62 116.69 -6.62 116.69 -6.1 118.29 C-4.61 122.76 -3.16 127 -0.74 131.05 C1 134 1 134 1 137 C-2.53 136.39 -5.64 135.45 -8.95 134.07 C-9.88 133.69 -10.81 133.3 -11.77 132.91 C-12.73 132.51 -13.7 132.1 -14.69 131.69 C-16.59 130.9 -18.49 130.11 -20.39 129.32 C-21.32 128.94 -22.25 128.55 -23.21 128.15 C-26.72 126.7 -30.25 125.3 -33.79 123.9 C-35.99 123 -38.15 122.05 -40.31 121.06 C-43.83 119.48 -47.39 118.06 -51 116.69 C-56.84 114.47 -62.62 112.14 -68.38 109.74 C-72.19 108.15 -75.99 106.6 -79.83 105.1 C-80.61 104.79 -81.39 104.48 -82.2 104.16 C-83.71 103.56 -85.22 102.98 -86.73 102.4 C-88.52 101.68 -90.27 100.85 -92 100 C-92.33 99.01 -92.66 98.02 -93 97 C-93.33 97.66 -93.66 98.32 -94 99 C-97.37 97.96 -100.6 96.77 -103.81 95.31 C-108.26 93.3 -112.74 91.42 -117.25 89.56 C-117.92 89.29 -118.58 89.01 -119.27 88.73 C-123.54 86.97 -127.84 85.29 -132.15 83.64 C-139.25 80.92 -146.28 78.07 -153.31 75.19 C-154.55 74.68 -155.8 74.17 -157.04 73.67 C-160.03 72.45 -163.01 71.22 -166 70 C-165.19 67.59 -165.19 67.59 -164 65 C-160.92 63.52 -160.92 63.52 -157.19 62.38 C-152.7 60.97 -148.99 59.48 -145 57 C-143.16 56.23 -141.31 55.5 -139.44 54.81 C-133.52 52.58 -127.63 50.28 -121.75 47.94 C-120.92 47.61 -120.1 47.28 -119.24 46.94 C-114.47 45.03 -109.76 43.02 -105.07 40.91 C-101.24 39.23 -97.32 37.81 -93.41 36.34 C-90.81 35.32 -88.28 34.24 -85.73 33.09 C-80.82 30.88 -75.8 29 -70.75 27.12 C-63.69 24.48 -56.86 21.63 -50.05 18.37 C-45.53 16.34 -40.88 14.77 -36.2 13.14 C-32.87 11.95 -29.7 10.59 -26.49 9.11 C-22.45 7.31 -18.34 5.72 -14.23 4.11 C-11.67 3.1 -9.17 2.09 -6.72 0.83 C-4.43 -0.28 -2.51 -0.14 0 0 Z " fill="#FA0302" transform="translate(364,110)"/>
<path d="M0 0 C12.5 4.42 24.74 9.39 36.88 14.7 C39.92 16.01 39.92 16.01 42.78 16.92 C47.26 18.42 51.62 20.22 56 22 C57.67 22.67 59.33 23.33 61 24 C71 28 71 28 73.49 29 C75.19 29.68 76.89 30.35 78.6 31.03 C84.69 33.45 90.7 36.01 96.7 38.63 C99.77 39.91 102.84 40.97 106 42 C111.68 44.14 117.25 46.53 122.81 48.94 C128.44 51.36 134.12 53.61 139.85 55.79 C144.94 57.75 149.97 59.88 155 62 C157.25 62.94 159.5 63.88 161.75 64.81 C163.5 65.54 165.25 66.27 167 67 C167 67.99 167 68.98 167 70 C163.71 70.8 162.29 71.1 159 70 C159 70.99 159 71.98 159 73 C158.24 73.27 157.47 73.54 156.68 73.81 C144.58 78.24 133.28 83.84 123.05 91.75 C121 93 121 93 117 93 C116.95 93.56 116.89 94.13 116.84 94.71 C115.6 98.08 113.37 99.45 110.56 101.62 C106.65 104.66 106.65 104.66 103 108 C102.01 108 101.02 108 100 108 C99.9 108.75 99.8 109.49 99.7 110.26 C98.91 113.35 97.94 114.55 95.75 116.81 C92.64 120.16 90.33 123.53 88.14 127.53 C87.76 128.02 87.39 128.5 87 129 C86.01 129 85.02 129 84 129 C83.86 129.78 83.71 130.57 83.56 131.38 C83 134 83 134 82 136 C81.01 136 80.02 136 79 136 C79.66 136.33 80.32 136.66 81 137 C81 137.66 81 138.32 81 139 C80.01 139 79.02 139 78 139 C78.05 139.71 78.1 140.42 78.15 141.15 C77.98 144.47 77.06 146.58 75.62 149.56 C74.96 150.96 74.96 150.96 74.29 152.38 C73.2 154.59 72.11 156.8 71 159 C70.34 159 69.68 159 69 159 C69.33 160.32 69.66 161.64 70 163 C69.01 163.66 68.02 164.32 67 165 C63.62 158.63 60.85 152.19 58.32 145.44 C55.44 137.95 52.19 130.61 48.88 123.31 C47.45 120.13 46.23 116.91 45.06 113.62 C43.39 108.94 41.45 104.46 39.35 99.95 C36.78 94.35 34.4 88.67 32 83 C31.57 81.98 31.13 80.95 30.68 79.9 C28.53 74.78 26.47 69.63 24.5 64.44 C22.6 59.44 20.5 54.59 18.25 49.74 C16.04 44.88 14.03 39.94 12 35 C11.21 33.1 10.42 31.21 9.62 29.31 C9.22 28.34 8.82 27.36 8.4 26.36 C7.33 23.78 6.25 21.21 5.16 18.64 C4.53 17.11 3.89 15.59 3.25 14.06 C2.94 13.34 2.64 12.62 2.32 11.87 C0.83 8.29 -0.56 4.89 -1 1 C-0.67 0.67 -0.34 0.34 0 0 Z " fill="#F9FCFE" transform="translate(194,188)"/>
<path d="M0 0 C1.32 0.66 2.64 1.32 4 2 C3.67 3.65 3.34 5.3 3 7 C3.66 7 4.32 7 5 7 C5 7.99 5 8.98 5 10 C5.66 10 6.32 10 7 10 C7.53 11.29 8.05 12.58 8.56 13.88 C8.85 14.59 9.14 15.31 9.44 16.05 C10 18 10 18 9 20 C10.48 20.49 10.48 20.49 12 21 C13.18 23.94 13.03 24.9 12 28 C12.99 28 13.98 28 15 28 C16.32 31.62 17 34.1 17 38 C17.66 38 18.32 38 19 38 C20.04 40.24 21.05 42.49 22.06 44.75 C22.36 45.38 22.65 46.02 22.96 46.67 C25.07 51.45 25.07 51.45 24.68 54.45 C24.46 54.96 24.23 55.47 24 56 C25.48 56.49 25.48 56.49 27 57 C27.96 58.79 27.96 58.79 28.81 61.19 C30.92 66.89 33.4 72.38 35.93 77.9 C36.98 80.95 37.23 82.09 36 85 C36.99 85 37.98 85 39 85 C40.32 88.62 41 91.1 41 95 C41.66 95 42.32 95 43 95 C44.04 97.24 45.05 99.49 46.06 101.75 C46.5 102.7 46.5 102.7 46.96 103.67 C49.07 108.45 49.07 108.45 48.68 111.45 C48.46 111.96 48.23 112.47 48 113 C48.99 113.33 49.98 113.66 51 114 C53.12 117.76 54.62 121.82 56.25 125.81 C56.96 127.47 56.96 127.47 57.68 129.17 C58.12 130.23 58.56 131.3 59.02 132.39 C59.62 133.86 59.62 133.86 60.24 135.36 C61.03 138.11 61 139.36 60 142 C60.99 142 61.98 142 63 142 C63.22 143.36 63.22 143.36 63.44 144.75 C63.86 147.21 64.35 149.59 65 152 C65.66 152 66.32 152 67 152 C69.48 157.94 69.48 157.94 72 164 C70.02 164.33 68.04 164.66 66 165 C66 164.34 66 163.68 66 163 C64.49 162.84 64.49 162.84 62.95 162.67 C58.97 162.1 55.53 160.79 51.81 159.25 C50.85 158.85 50.85 158.85 49.86 158.45 C47.9 157.64 45.95 156.82 44 156 C42.83 155.51 41.67 155.03 40.46 154.53 C38.44 153.68 36.41 152.83 34.39 151.98 C32.62 151.25 30.82 150.61 29 150 C27.68 149.45 26.36 148.9 25.04 148.33 C16.5 144.67 7.99 141.2 -0.79 138.15 C-7.56 135.73 -14.14 132.85 -20.69 129.88 C-23.53 128.6 -26.35 127.51 -29.31 126.56 C-33.82 125.11 -38.14 123.3 -42.5 121.45 C-46.64 119.73 -50.82 118.11 -55 116.5 C-60.97 114.2 -66.89 111.82 -72.78 109.32 C-75.38 108.25 -77.99 107.25 -80.63 106.28 C-81.44 105.97 -82.26 105.67 -83.1 105.36 C-84.71 104.76 -86.33 104.16 -87.95 103.59 C-92.03 102.06 -94.81 101.01 -97 97 C-95.97 96.62 -94.95 96.25 -93.89 95.86 C-79.92 91.62 -79.92 91.62 -68.08 83.98 C-65.54 81.56 -63.33 81.03 -60 80 C-58.11 78.94 -56.25 77.81 -54.44 76.62 C-53.53 76.04 -52.62 75.45 -51.68 74.85 C-48.01 72.31 -44.66 69.66 -41.5 66.5 C-39 64 -39 64 -36.25 61.81 C-33.93 60.2 -33.93 60.2 -33 58 C-32.34 58 -31.68 58 -31 58 C-29.48 55.06 -28.2 52.08 -27 49 C-26.34 49 -25.68 49 -25 49 C-25 48.34 -25 47.68 -25 47 C-24.01 47 -23.02 47 -22 47 C-22 45.68 -22 44.36 -22 43 C-21.01 43 -20.02 43 -19 43 C-19 41.35 -19 39.7 -19 38 C-18.01 37.67 -17.02 37.34 -16 37 C-14.83 35.35 -14.83 35.35 -13.94 33.31 C-13.6 32.59 -13.25 31.87 -12.9 31.13 C-11.89 28.85 -11.89 28.85 -11 25.75 C-9.86 22.62 -8.32 21.32 -6 19 C-5.85 18.24 -5.7 17.48 -5.54 16.7 C-4.77 12.86 -2.91 9.81 -1.06 6.4 C0.27 3.83 0.27 3.83 0 0 Z M-9 23 C-8 25 -8 25 -8 25 Z " fill="#F9FCFE" transform="translate(101,3)"/>
<path d="M0 0 C0.99 1.49 0.99 1.49 2 3 C1.17 5.56 1.17 5.56 -0.25 8.44 C-0.71 9.38 -1.17 10.33 -1.64 11.31 C-2.09 12.2 -2.54 13.08 -3 14 C-3.39 14.77 -3.77 15.55 -4.17 16.35 C-4.45 16.89 -4.72 17.44 -5 18 C-5.66 18 -6.32 18 -7 18 C-6.81 18.58 -6.62 19.16 -6.42 19.76 C-5.93 22.38 -6.28 23.44 -7.33 25.86 C-7.63 26.59 -7.94 27.31 -8.25 28.05 C-8.58 28.8 -8.91 29.54 -9.25 30.31 C-9.56 31.05 -9.88 31.78 -10.2 32.54 C-11.12 34.7 -12.06 36.85 -13 39 C-13.58 40.35 -14.16 41.69 -14.73 43.04 C-15.36 44.51 -15.36 44.51 -16 46 C-16.99 46 -17.98 46 -19 46 C-18.69 46.82 -18.69 46.82 -18.38 47.65 C-17.87 50.84 -18.75 52.64 -19.98 55.61 C-20.65 57.2 -20.65 57.2 -21.32 58.83 C-21.79 59.94 -22.26 61.05 -22.75 62.19 C-23.21 63.31 -23.66 64.42 -24.13 65.58 C-26.73 71.75 -26.73 71.75 -28 74 C-28.99 74.33 -29.98 74.66 -31 75 C-30.81 75.58 -30.62 76.16 -30.42 76.76 C-29.93 79.38 -30.28 80.44 -31.33 82.86 C-31.63 83.59 -31.94 84.31 -32.25 85.05 C-32.58 85.8 -32.91 86.54 -33.25 87.31 C-33.56 88.05 -33.88 88.78 -34.2 89.54 C-35.12 91.7 -36.06 93.85 -37 96 C-37.58 97.35 -38.16 98.69 -38.73 100.04 C-39.15 101.02 -39.57 101.99 -40 103 C-40.99 103 -41.98 103 -43 103 C-42.79 103.54 -42.59 104.09 -42.38 104.65 C-41.87 107.84 -42.75 109.64 -43.98 112.61 C-44.43 113.67 -44.87 114.74 -45.32 115.83 C-45.79 116.94 -46.26 118.05 -46.75 119.19 C-47.21 120.31 -47.66 121.42 -48.13 122.58 C-50.73 128.75 -50.73 128.75 -52 131 C-52.99 131.33 -53.98 131.66 -55 132 C-54.78 132.52 -54.56 133.05 -54.33 133.59 C-53.84 137.16 -55.2 139.38 -56.69 142.62 C-57.25 143.87 -57.81 145.11 -58.36 146.36 C-58.9 147.56 -59.44 148.76 -60 150 C-61.37 153.32 -62.69 156.66 -64 160 C-64.99 160 -65.98 160 -67 160 C-66.67 161.32 -66.34 162.64 -66 164 C-66.99 164.33 -67.98 164.66 -69 165 C-69.23 164.45 -69.46 163.9 -69.7 163.33 C-73.73 153.7 -77.8 144.1 -82.44 134.75 C-82.77 134.08 -83.1 133.41 -83.44 132.71 C-85.04 129.24 -85.04 129.24 -88 127 C-89 125.33 -90 123.67 -91 122 C-92.66 119.9 -94.33 117.85 -96.06 115.81 C-96.73 115.01 -96.73 115.01 -97.42 114.2 C-99.22 112.06 -101.02 109.98 -103 108 C-103 107.01 -103 106.02 -103 105 C-104.32 104.67 -105.64 104.34 -107 104 C-107 103.34 -107 102.68 -107 102 C-108.11 101.63 -108.11 101.63 -109.25 101.25 C-112.25 99.89 -113.92 98.54 -116 96 C-116 95.01 -116 94.02 -116 93 C-116.91 92.83 -117.81 92.67 -118.75 92.5 C-124.86 90.8 -129.88 86.59 -135 83 C-136.49 82.01 -136.49 82.01 -138 81 C-137.67 80.34 -137.34 79.68 -137 79 C-138.49 79.5 -138.49 79.5 -140 80 C-141.49 79.5 -141.49 79.5 -143 79 C-143 78.01 -143 77.02 -143 76 C-144.98 76.5 -144.98 76.5 -147 77 C-147 76.34 -147 75.68 -147 75 C-147.99 74.92 -148.98 74.83 -150 74.75 C-153.82 74.22 -156.76 72.79 -160.11 70.94 C-162.06 69.97 -163.88 69.45 -166 69 C-165.67 68.01 -165.34 67.02 -165 66 C-162.42 64.73 -159.92 63.65 -157.25 62.62 C-156.09 62.16 -156.09 62.16 -154.91 61.69 C-152.61 60.78 -150.31 59.89 -148 59 C-146.87 58.56 -145.74 58.13 -144.58 57.68 C-142.51 56.89 -140.44 56.1 -138.38 55.31 C-134.39 53.76 -130.45 52.14 -126.5 50.5 C-120.49 48.01 -114.46 45.62 -108.38 43.31 C-104.39 41.76 -100.45 40.14 -96.5 38.5 C-90.49 36.01 -84.46 33.62 -78.38 31.31 C-74.39 29.76 -70.45 28.14 -66.5 26.5 C-60.49 24.01 -54.46 21.62 -48.38 19.31 C-44.39 17.76 -40.45 16.14 -36.5 14.5 C-30.46 12 -24.4 9.59 -18.29 7.27 C-12.17 4.91 -6.09 2.45 0 0 Z " fill="#F9FCFE" transform="translate(171,188)"/>
<path d="M0 0 C1.86 0.21 1.86 0.21 4 1 C7.36 6.47 8.53 12.69 9 19 C9.99 19 10.98 19 12 19 C12.69 20.4 12.69 20.4 13.4 21.82 C17.25 29.41 21.38 36.27 26.76 42.87 C28.72 45.27 30.01 47.03 31 50 C31.66 50 32.32 50 33 50 C34.45 51.5 34.45 51.5 36.12 53.56 C39.2 57.19 42.46 60.3 46.11 63.36 C48 65 48 65 49.88 66.98 C53.12 70.07 56.91 72.12 60.73 74.41 C61.48 74.94 62.23 75.46 63 76 C63 76.66 63 77.32 63 78 C64.02 78.13 64.02 78.13 65.06 78.26 C68.75 79.19 71.78 80.94 75.06 82.81 C80.72 85.95 86.25 88.31 92.46 90.19 C95.52 91.17 98.19 92.44 101 94 C100 97 100 97 98 98.17 C97.2 98.5 96.39 98.84 95.56 99.19 C94.76 99.53 93.96 99.88 93.13 100.23 C91 101 91 101 89 101 C88.67 100.67 88.34 100.34 88 100 C84.72 100.75 84.72 100.75 83 104 C82.01 104 81.02 104 80 104 C80 103.01 80 102.02 80 101 C79.67 101.99 79.34 102.98 79 104 C76.91 106.59 75.26 107.44 72 108 C72 106.68 72 105.36 72 104 C71.01 104.5 71.01 104.5 70 105 C69.63 106.24 69.63 106.24 69.25 107.5 C68.84 108.33 68.43 109.15 68 110 C64.94 110.69 64.94 110.69 62 111 C61.67 111.66 61.34 112.32 61 113 C58.94 113.62 58.94 113.62 57 114 C56.34 113.01 55.68 112.02 55 111 C54.69 112.21 54.69 112.21 54.38 113.44 C53.69 114.71 53.69 114.71 53 116 C49.94 116.69 49.94 116.69 47 117 C46.67 117.66 46.34 118.32 46 119 C43.94 119.62 43.94 119.62 42 120 C41.34 119.01 40.68 118.02 40 117 C39.69 118.21 39.69 118.21 39.38 119.44 C38.69 120.71 38.69 120.71 38 122 C34.94 122.69 34.94 122.69 32 123 C31.67 123.66 31.34 124.32 31 125 C28.03 126.09 27.12 126.04 24 125 C23.5 126.49 23.5 126.49 23 128 C22.03 128.12 21.06 128.25 20.06 128.38 C19.05 128.58 18.04 128.79 17 129 C16.67 129.66 16.34 130.32 16 131 C13.03 132.09 12.12 132.04 9 131 C8.67 131.99 8.34 132.98 8 134 C7.03 134.12 6.06 134.25 5.06 134.38 C4.05 134.58 3.04 134.79 2 135 C1.67 135.66 1.34 136.32 1 137 C-1.97 138.09 -2.88 138.04 -6 137 C-6.33 137.99 -6.66 138.98 -7 140 C-9.4 141.2 -9.4 141.2 -12.38 142.25 C-13.35 142.61 -14.33 142.96 -15.34 143.33 C-18 144 -18 144 -21 143 C-21.33 143.99 -21.66 144.98 -22 146 C-24.4 147.2 -24.4 147.2 -27.38 148.25 C-28.35 148.61 -29.33 148.96 -30.34 149.33 C-33 150 -33 150 -36 149 C-36.33 149.99 -36.66 150.98 -37 152 C-39.4 153.2 -39.4 153.2 -42.38 154.25 C-43.35 154.61 -44.33 154.96 -45.34 155.33 C-48 156 -48 156 -51 155 C-51.33 155.99 -51.66 156.98 -52 158 C-54.87 159.42 -54.87 159.42 -58.44 160.75 C-59.61 161.2 -60.79 161.65 -62 162.11 C-65 163 -65 163 -67 162 C-66.39 158.44 -65.44 155.39 -63.97 152.09 C-63.57 151.18 -63.17 150.28 -62.76 149.34 C-61.92 147.45 -61.08 145.55 -60.24 143.66 C-59.84 142.75 -59.44 141.84 -59.03 140.91 C-58.67 140.08 -58.3 139.26 -57.92 138.42 C-56.98 135.95 -56.44 133.6 -56 131 C-55.34 131 -54.68 131 -54 131 C-53.81 130.21 -53.81 130.21 -53.62 129.4 C-52.85 126.43 -52 123.5 -51.12 120.56 C-50.8 119.45 -50.47 118.34 -50.13 117.19 C-49.05 114.15 -47.68 111.74 -46 109 C-45.84 107.97 -45.67 106.94 -45.5 105.88 C-45 103 -45 103 -43.63 101.72 C-41.34 99.31 -40.53 96.73 -39.38 93.62 C-38.95 92.5 -38.52 91.38 -38.09 90.23 C-36.95 87.1 -36.95 87.1 -36.48 84.15 C-36.24 83.08 -36.24 83.08 -36 82 C-35.01 81.5 -35.01 81.5 -34 81 C-33.58 79.43 -33.17 77.87 -32.77 76.3 C-31.43 72.3 -29.33 68.67 -27.34 64.96 C-25.97 61.94 -25.53 59.26 -25 56 C-24.34 55.67 -23.68 55.34 -23 55 C-22.07 53.12 -21.23 51.19 -20.44 49.25 C-20 48.2 -19.57 47.16 -19.12 46.08 C-18.13 43.36 -17.51 40.84 -17 38 C-16.67 37.01 -16.34 36.02 -16 35 C-15.34 34.67 -14.68 34.34 -14 34 C-12.97 31.93 -12.97 31.93 -12.05 29.41 C-11.7 28.48 -11.35 27.55 -10.98 26.59 C-10.62 25.61 -10.25 24.63 -9.88 23.62 C-9.5 22.65 -9.13 21.68 -8.75 20.68 C-6.68 15.48 -6.68 15.48 -6 10 C-5.57 9.59 -5.13 9.18 -4.69 8.75 C-2.21 6.18 -1.31 3.31 0 0 Z " fill="#F9FCFE" transform="translate(260,6)"/>
<path d="M0 0 C30.03 0 60.06 0 91 0 C91 0.66 91 1.32 91 2 C91.99 2.33 92.98 2.66 94 3 C91.33 14.77 88.31 26.4 85 38 C83.02 38 81.04 38 79 38 C78.4 36.19 77.79 34.38 77.19 32.56 C76.82 31.47 76.45 30.38 76.07 29.25 C75.43 27.3 74.81 25.35 74.24 23.38 C74.02 22.61 73.79 21.85 73.56 21.06 C73.38 20.39 73.19 19.72 73 19.04 C71.34 15.67 70.14 14.2 67 12 C62.55 11.38 58.17 11.53 53.69 11.69 C52.47 11.71 51.25 11.73 50 11.76 C47 11.81 44 11.9 41 12 C38.47 19.82 36.32 27.6 34.51 35.61 C33.43 40.32 32.19 44.93 30.81 49.56 C29.39 54.41 28.4 58.96 28 64 C39.83 64.6 39.83 64.6 50.03 59.23 C52.16 56.82 53.57 54.47 55.06 51.62 C55.57 50.66 56.08 49.7 56.61 48.71 C58.1 45.82 59.58 42.92 61 40 C62.98 40.33 64.96 40.66 67 41 C66.68 47.95 65.19 54.15 63.18 60.79 C61.39 66.93 60.1 73.2 58.75 79.45 C57.79 83.82 56.79 87.89 55 92 C54.6 93.43 54.22 94.87 53.88 96.31 C53.59 97.53 53.3 98.75 53 100 C50.62 100.62 50.62 100.62 48 101 C45.13 98.13 45.66 95.88 45.5 91.88 C45.27 86.07 44.45 81.82 43 76 C36.73 75.34 30.46 74.68 24 74 C23.67 75.98 23.34 77.96 23 80 C22.31 83.26 21.53 86.51 20.75 89.75 C20.53 90.67 20.31 91.59 20.09 92.54 C18.64 98.58 17 104.54 15.25 110.5 C13.15 117.7 12.15 124.47 12 132 C17.47 133.12 22.82 133.25 28.38 133.31 C29.28 133.34 30.19 133.37 31.12 133.4 C38.37 133.47 43.34 131.84 49.06 127.4 C51.36 124.95 52.92 123.23 54 120 C55.33 118.67 56.67 117.33 58 116 C59.37 114.05 60.71 112.07 62 110.06 C68.83 99.52 68.83 99.52 72.12 98.06 C72.74 98.04 73.36 98.02 74 98 C74.66 98.66 75.32 99.32 76 100 C74.13 111.83 69.8 123.51 66.25 134.94 C66.04 135.62 65.83 136.3 65.61 137 C64.12 141.76 64.12 141.76 63 144 C30.33 144 -2.34 144 -36 144 C-37 141 -37 141 -36.46 138.44 C-35 136 -35 136 -32.1 134.81 C-30.38 134.41 -30.38 134.41 -28.62 134 C-24.85 133.11 -22.57 132.53 -19.71 129.88 C-17.62 126.36 -16.78 122.91 -16 118.94 C-14.93 113.94 -13.81 109.12 -12.06 104.31 C-9.75 97.74 -8.35 91 -6.86 84.21 C-5.46 77.88 -3.82 71.71 -1.97 65.5 C-0.59 60.51 0.48 55.46 1.57 50.4 C2.6 45.65 3.81 41.01 5.27 36.37 C6.15 33.51 6.93 30.64 7.69 27.75 C8.06 26.32 8.06 26.32 8.45 24.86 C9.2 20.98 9.67 17.46 8 13.81 C5.07 11.16 1.73 10.17 -2 9 C-2 6.69 -2 4.38 -2 2 C-1.34 1.67 -0.68 1.34 0 1 C0 0.67 0 0.34 0 0 Z " fill="#000E84" transform="translate(797,174)"/>
<path d="M0 0 C2 0.1 2 0.1 4.06 -0.25 C4.75 -0.34 5.45 -0.43 6.16 -0.52 C8.23 -0.9 8.23 -0.9 10 -3 C13.62 -2.62 13.62 -2.62 17 -2 C16.46 4.09 15.45 9.6 13.69 15.44 C11.59 22.65 9.84 29.88 8.34 37.25 C7.62 40.71 6.98 43.02 5 46 C2 46.31 2 46.31 -1 46 C-3 44 -3 44 -3.02 40.41 C-3 39.69 -2.98 38.98 -2.96 38.24 C-3.02 34.54 -3.87 31.08 -4.75 27.5 C-4.93 26.75 -5.11 26.01 -5.3 25.24 C-7.4 16.97 -9.89 11.1 -17 6 C-20.76 4.12 -24.9 4.49 -29 5 C-36.26 7.58 -40.96 12.4 -45.12 18.7 C-46.44 22.16 -46.49 25.59 -46.56 29.25 C-46.61 29.98 -46.66 30.7 -46.71 31.45 C-46.8 36 -45.93 38.66 -43.05 42.22 C-39.09 46.29 -34.7 48.75 -29.62 51.19 C-28.01 51.99 -26.4 52.8 -24.79 53.61 C-24 54 -23.21 54.39 -22.4 54.8 C-10.45 60.8 -10.45 60.8 -7.12 65.44 C-6.57 66.21 -6.01 66.99 -5.44 67.79 C0.4 76.77 1.96 86.83 0.54 97.46 C-1.45 106.5 -4.2 115.65 -10 123 C-10.66 123 -11.32 123 -12 123 C-12.21 123.56 -12.41 124.11 -12.62 124.69 C-14.52 127.87 -17.12 129.71 -20 132 C-20.5 132.52 -20.99 133.03 -21.5 133.56 C-31.35 143 -44.25 143.56 -57.17 143.48 C-66.65 143.23 -74.53 141.39 -83 137 C-83 136.34 -83 135.68 -83 135 C-85.29 134.58 -85.29 134.58 -88 135 C-88.78 135.82 -89.57 136.65 -90.38 137.5 C-93 140 -93 140 -96.81 140.31 C-98.39 140.16 -98.39 140.16 -100 140 C-101.44 135.3 -100.44 131.33 -99.31 126.69 C-99.04 125.5 -99.04 125.5 -98.76 124.3 C-97.36 118.35 -95.88 112.42 -94.36 106.51 C-93.22 102 -92.26 97.5 -91.49 92.92 C-91 91 -91 91 -89 88 C-86.69 88.33 -84.38 88.66 -82 89 C-81.92 89.56 -81.84 90.12 -81.76 90.69 C-78.71 111.66 -78.71 111.66 -66.44 128.31 C-60.22 131.36 -54.34 133.4 -47.54 131.21 C-43.29 129.58 -39.45 128.04 -36 125 C-35.67 124.01 -35.34 123.02 -35 122 C-34.34 122 -33.68 122 -33 122 C-31.1 118.08 -30.61 114.47 -30.25 110.18 C-30 108 -30 108 -29.4 106.03 C-28.88 103.4 -29.37 101.69 -30.12 99.12 C-30.35 98.3 -30.58 97.48 -30.82 96.63 C-34 89.54 -38.44 86.85 -45.31 83.94 C-46.84 83.25 -48.37 82.56 -49.89 81.87 C-50.61 81.54 -51.33 81.22 -52.07 80.89 C-61.46 76.57 -69.49 69.91 -74.06 60.5 C-78.37 48.79 -76.95 36.25 -72 25 C-71.65 24.14 -71.3 23.28 -70.94 22.39 C-65.27 9.71 -54.65 0.32 -42 -5 C-28.25 -10.18 -12.01 -8 0 0 Z M-29 108 C-28 111 -28 111 -28 111 Z M-13 120 C-12.67 120.99 -12.34 121.98 -12 123 C-11.67 122.01 -11.34 121.02 -11 120 C-11.66 120 -12.32 120 -13 120 Z M-24 131 C-23.67 131.66 -23.34 132.32 -23 133 C-22.34 132.34 -21.68 131.68 -21 131 C-21.99 131 -22.98 131 -24 131 Z " fill="#000E84" transform="translate(973,178)"/>
<path d="M0 0 C4.59 3.33 7.7 6.76 9.19 12.31 C8.88 17.08 7.41 21.1 5.19 25.31 C2.39 27.72 0.51 28.26 -3.12 28.88 C-8.19 28.1 -11.2 25.86 -14.81 22.31 C-17.4 18.16 -17.41 13.11 -17.81 8.31 C-18.37 8.53 -18.92 8.75 -19.49 8.97 C-20.22 9.25 -20.94 9.53 -21.69 9.81 C-22.41 10.09 -23.13 10.37 -23.87 10.66 C-25.81 11.31 -25.81 11.31 -27.81 11.31 C-27.92 11.84 -28.02 12.36 -28.13 12.9 C-29.02 16.05 -30.35 18.9 -31.69 21.88 C-36.14 31.74 -36.14 31.74 -37.81 42.31 C-33.15 42.19 -28.49 42.07 -23.82 41.94 C-22.24 41.9 -20.65 41.86 -19.06 41.82 C-16.78 41.76 -14.51 41.69 -12.23 41.63 C-11.52 41.61 -10.8 41.6 -10.07 41.58 C-6.32 41.52 -6.32 41.52 -2.81 40.31 C0.25 40.19 0.25 40.19 3.19 40.31 C4.19 41.31 4.19 41.31 4.21 43.32 C3.7 49.92 2.29 55.83 0.37 62.15 C-1.42 68.22 -2.7 74.41 -4.06 80.59 C-4.92 84.46 -5.8 88.26 -6.92 92.07 C-7.82 95.35 -8.21 98.36 -8.44 101.75 C-8.51 102.8 -8.59 103.85 -8.66 104.93 C-8.74 106.11 -8.74 106.11 -8.81 107.31 C-2.74 107.42 -2.74 107.42 3.19 106.31 C4.19 107.31 4.19 107.31 4.25 110.38 C4.23 111.34 4.21 112.31 4.19 113.31 C3.53 113.31 2.87 113.31 2.19 113.31 C2.19 113.97 2.19 114.63 2.19 115.31 C-5.1 119.46 -12.45 120.73 -20.81 120.31 C-24.38 118.75 -24.38 118.75 -26.81 116.31 C-27.76 115.49 -28.71 114.66 -29.69 113.81 C-33.19 109.21 -32.37 103.8 -31.81 98.31 C-30.53 91.64 -28.63 85.1 -26.81 78.56 C-26.09 75.95 -25.38 73.33 -24.67 70.71 C-24.24 69.09 -23.79 67.47 -23.34 65.86 C-23.14 65.12 -22.94 64.37 -22.73 63.61 C-22.55 62.97 -22.38 62.33 -22.19 61.67 C-21.64 58.26 -21.81 54.77 -21.81 51.31 C-27.75 51.64 -33.69 51.97 -39.81 52.31 C-42.33 58.92 -42.33 58.92 -44.06 65.56 C-44.25 66.49 -44.45 67.42 -44.65 68.38 C-44.85 69.35 -45.05 70.32 -45.25 71.31 C-45.69 73.37 -46.12 75.43 -46.56 77.49 C-46.88 78.99 -46.88 78.99 -47.21 80.52 C-49.39 90.59 -52.1 100.52 -54.88 110.44 C-55.12 111.33 -55.37 112.22 -55.62 113.13 C-56.95 117.82 -58.46 122.02 -60.81 126.31 C-61.2 127.08 -61.58 127.85 -61.98 128.65 C-62.92 130.54 -63.87 132.42 -64.81 134.31 C-65.47 134.31 -66.13 134.31 -66.81 134.31 C-67.07 134.89 -67.32 135.47 -67.59 136.06 C-71.93 144.03 -79.47 148.53 -87.81 151.31 C-103.26 152.51 -103.26 152.51 -108.52 150.04 C-110.79 148.07 -112.46 146.01 -113.81 143.31 C-113.88 141.11 -113.9 138.9 -113.88 136.69 C-113.87 135.5 -113.86 134.31 -113.85 133.09 C-113.84 132.17 -113.82 131.26 -113.81 130.31 C-111.83 129.32 -111.83 129.32 -109.81 128.31 C-109.81 127.65 -109.81 126.99 -109.81 126.31 C-107.11 124.96 -104.97 124.32 -101.94 124.12 C-96.34 126.25 -93.06 131.6 -90.61 136.92 C-89.81 139.31 -89.81 139.31 -89.81 142.31 C-89.15 142.31 -88.49 142.31 -87.81 142.31 C-87.52 141.58 -87.23 140.85 -86.94 140.1 C-86.25 138.4 -85.55 136.7 -84.83 135.01 C-82.3 128.99 -80.65 123.07 -79.31 116.69 C-78.89 114.73 -78.46 112.78 -78.03 110.83 C-77.82 109.88 -77.61 108.94 -77.4 107.96 C-76.18 102.48 -74.78 97.05 -73.4 91.6 C-68.26 71.54 -68.26 71.54 -63.81 51.31 C-67.11 51.31 -70.41 51.31 -73.81 51.31 C-74.81 47.31 -74.81 47.31 -72.81 42.31 C-69.18 41.98 -65.55 41.65 -61.81 41.31 C-61.02 39.44 -60.23 37.56 -59.44 35.69 C-59 34.64 -58.56 33.6 -58.1 32.52 C-56.88 29.48 -55.81 26.43 -54.81 23.31 C-54.15 23.31 -53.49 23.31 -52.81 23.31 C-52.54 22.59 -52.28 21.87 -52 21.12 C-50.81 18.31 -49.54 15.83 -47.81 13.31 C-47.15 13.31 -46.49 13.31 -45.81 13.31 C-45.81 12.65 -45.81 11.99 -45.81 11.31 C-34.73 0.76 -14.85 -6.93 0 0 Z M-67.81 131.31 C-67.48 132.3 -67.15 133.29 -66.81 134.31 C-66.48 133.32 -66.15 132.33 -65.81 131.31 C-66.47 131.31 -67.13 131.31 -67.81 131.31 Z " fill="#000E84" transform="translate(775.8125,6.6875)"/>
<path d="M0 0 C0.87 0.01 1.74 0.02 2.64 0.03 C4.76 0.05 6.88 0.09 9 0.12 C9 0.78 9 1.44 9 2.12 C9.99 1.79 10.98 1.47 12 1.12 C15.44 2.3 18.76 3.63 22.11 5.03 C25.88 6.54 28.12 7.4 32 6.12 C32 5.47 32 4.81 32 4.12 C34.81 3.5 34.81 3.5 38 3.12 C38.99 3.78 39.98 4.44 41 5.12 C40.48 10.15 39.6 14.33 38 19.12 C37.28 21.92 36.64 24.74 36 27.56 C34.81 32.8 33.49 37.96 32 43.12 C31.63 44.68 31.27 46.25 30.94 47.81 C30.34 50.6 29.7 53.36 29 56.12 C25.62 56.25 25.62 56.25 22 56.12 C19.6 53.73 19.69 52.98 19.47 49.69 C19.4 48.79 19.33 47.9 19.26 46.97 C19.13 45.11 19 43.24 18.88 41.37 C18.09 31.39 16.2 22.45 9 15.12 C4.73 12.25 0.16 10.94 -5 11.12 C-7.39 11.71 -9.63 12.45 -11.92 13.34 C-14 14.12 -14 14.12 -16.14 14.48 C-18.16 14.95 -18.16 14.95 -19 16.91 C-19.5 18.01 -19.5 18.01 -20 19.12 C-21.28 20.62 -22.59 22.07 -23.94 23.5 C-27.01 26.89 -29.2 29.89 -31 34.12 C-31.62 35.31 -32.25 36.5 -32.88 37.69 C-40.39 52.87 -44.97 69.25 -46.64 86.06 C-47 89.12 -47 89.12 -48 91.12 C-49.13 103.59 -49.47 118.26 -41.62 128.75 C-36.13 133.72 -31.26 134.65 -24.12 134.62 C-23.36 134.65 -22.6 134.68 -21.81 134.71 C-13.62 134.74 -8.76 130.91 -2.97 125.46 C-1.66 124.15 -0.36 122.83 0.94 121.5 C1.61 120.83 2.28 120.16 2.97 119.48 C6.74 115.79 6.74 115.79 9 111.12 C9.66 111.12 10.32 111.12 11 111.12 C11.66 109.48 12.32 107.82 13 106.12 C15.68 106.5 16.87 107 18.88 108.88 C20 111.12 20 111.12 19.28 113.42 C12.45 127.86 -0.26 142.11 -15.38 147.94 C-17.17 148.53 -17.17 148.53 -19 149.12 C-19.99 149.46 -20.98 149.78 -22 150.12 C-25.7 150.38 -29.41 150.36 -33.12 150.38 C-34.64 150.41 -34.64 150.41 -36.18 150.44 C-49.18 150.5 -58.49 145.91 -67.65 136.87 C-69.13 134.95 -69.59 133.49 -70 131.12 C-70.66 131.12 -71.32 131.12 -72 131.12 C-72.8 129.27 -73.59 127.42 -74.38 125.56 C-74.82 124.53 -75.26 123.5 -75.71 122.43 C-78.8 114.51 -79.31 107.75 -79.25 99.31 C-79.26 98.19 -79.27 97.06 -79.27 95.9 C-79.26 89.06 -78.63 82.77 -77 76.12 C-76.72 74.87 -76.43 73.62 -76.14 72.32 C-73.96 63.73 -70.92 56.11 -67 48.12 C-65.93 45.67 -64.89 43.21 -63.86 40.73 C-63 39.12 -63 39.12 -61 38.12 C-59.99 36.37 -58.98 34.61 -58.01 32.83 C-56.89 30.94 -55.58 29.63 -54 28.12 C-53.59 27.38 -53.17 26.64 -52.75 25.88 C-49.26 20.39 -44.69 16.24 -39 13.12 C-37.64 12.17 -36.29 11.21 -34.94 10.25 C-24.23 3.07 -12.77 -0.26 0 0 Z M-78 86.12 C-77 88.12 -77 88.12 -77 88.12 Z M17 112.12 C18 114.12 18 114.12 18 114.12 Z M11 121.12 C12 123.12 12 123.12 12 123.12 Z M8 125.12 C7.67 125.78 7.34 126.44 7 127.12 C7.66 127.12 8.32 127.12 9 127.12 C8.67 126.47 8.34 125.81 8 125.12 Z M-28 136.12 C-28 136.46 -28 136.78 -28 137.12 C-25.69 137.12 -23.38 137.12 -21 137.12 C-21 136.79 -21 136.47 -21 136.12 C-23.31 136.12 -25.62 136.12 -28 136.12 Z " fill="#000E84" transform="translate(1238,170.875)"/>
<path d="M0 0 C0.84 -0 1.68 -0.01 2.54 -0.01 C3.93 -0.01 3.93 -0.01 5.34 -0.01 C6.31 -0.01 7.28 -0.02 8.28 -0.02 C11.51 -0.03 14.73 -0.03 17.95 -0.03 C20.18 -0.04 22.41 -0.04 24.64 -0.04 C29.33 -0.05 34.01 -0.05 38.69 -0.05 C44.7 -0.05 50.71 -0.07 56.73 -0.08 C61.34 -0.09 65.95 -0.1 70.56 -0.09 C72.77 -0.1 74.99 -0.1 77.21 -0.11 C80.3 -0.12 83.4 -0.12 86.49 -0.11 C87.42 -0.11 88.34 -0.12 89.29 -0.13 C90.13 -0.12 90.97 -0.12 91.84 -0.11 C92.57 -0.11 93.3 -0.11 94.06 -0.12 C95.98 0.13 95.98 0.13 98.98 2.13 C98.29 4.9 97.6 7.67 96.91 10.44 C96.26 13.01 95.63 15.57 95 18.14 C90.17 37.76 90.17 37.76 87.98 42.13 C85.98 42.18 83.98 42.17 81.98 42.13 C80.39 40.54 80.79 38.73 80.67 36.51 C80.07 29.21 78.94 19.28 74.63 13.24 C72.54 11.84 71.04 11.67 68.55 11.51 C65.57 11.3 62.86 10.93 59.98 10.13 C56.72 18.33 54.49 26.61 52.45 35.17 C51.66 38.5 50.82 41.82 49.98 45.13 C49.74 46.12 49.49 47.1 49.24 48.12 C45.48 63.13 45.48 63.13 44.73 66.16 C44.25 68.07 43.77 69.98 43.3 71.89 C41.73 78.25 40.09 84.6 38.42 90.95 C38.21 91.75 38 92.55 37.78 93.37 C36.85 96.9 35.9 100.42 34.89 103.93 C34.17 106.47 33.53 108.99 32.98 111.57 C32.36 114.5 31.65 117.37 30.86 120.26 C29.98 124.15 29.82 127.19 29.98 131.13 C35.92 133.61 35.92 133.61 41.98 136.13 C41.49 140.09 41.49 140.09 40.98 144.13 C21.18 144.13 1.38 144.13 -19.02 144.13 C-20.02 140.13 -20.02 140.13 -18.49 137.47 C-14.77 133.96 -11.04 134.01 -6.11 133.4 C-2.18 131.79 -1.45 130.26 0.17 126.47 C1.57 122.46 2.53 118.41 3.42 114.26 C3.84 112.39 4.27 110.52 4.69 108.65 C4.91 107.72 5.12 106.8 5.34 105.84 C6.29 101.84 7.41 97.9 8.55 93.95 C10.23 88.04 11.7 82.14 12.98 76.13 C15.11 66.24 17.85 56.55 20.64 46.84 C23.57 36.66 26.06 26.55 27.98 16.13 C28.31 14.47 28.65 12.8 28.98 11.13 C18.06 11.62 18.06 11.62 8.8 17.01 C6.93 19.07 6.93 19.07 5.61 21.45 C4.23 23.72 2.95 25.33 1.17 27.26 C-2.76 31.71 -5.33 36.87 -8.02 42.13 C-10 42.13 -11.98 42.13 -14.02 42.13 C-15.27 37.77 -14.66 34.95 -13.39 30.63 C-12.04 25.95 -10.79 21.27 -9.7 16.52 C-9.49 15.56 -9.27 14.61 -9.04 13.63 C-8.61 11.73 -8.19 9.83 -7.77 7.93 C-7.57 7.06 -7.37 6.19 -7.17 5.3 C-6.99 4.52 -6.82 3.74 -6.64 2.94 C-5.5 -0.36 -3.07 0.01 0 0 Z M7.98 13.13 C7.65 13.79 7.32 14.45 6.98 15.13 C7.97 14.8 8.96 14.47 9.98 14.13 C9.32 13.8 8.66 13.47 7.98 13.13 Z M-6.02 32.13 C-5.02 34.13 -5.02 34.13 -5.02 34.13 Z " fill="#000E84" transform="translate(1008.0167083740234,173.8662872314453)"/>
<path d="M0 0 C18.15 0 36.3 0 55 0 C55 0.66 55 1.32 55 2 C55.99 2.33 56.98 2.66 58 3 C57.69 5.81 57.69 5.81 56 9 C53.27 10.01 50.54 10.6 47.7 11.25 C43.88 12.31 42.25 13.76 40 17 C37.04 23.13 36.04 30.16 34.63 36.77 C33.08 43.9 31.16 50.9 29.15 57.91 C28.19 61.29 27.32 64.68 26.48 68.08 C25.74 71.05 24.93 73.99 24.12 76.94 C22.82 81.76 21.63 86.58 20.55 91.46 C17.95 103.06 14.23 113.8 8 124 C7.44 124.97 6.89 125.94 6.31 126.94 C1.02 133.94 -5.01 140.23 -13 144 C-14.01 144.52 -15.03 145.04 -16.07 145.58 C-20.69 147.54 -25.18 147.4 -30.12 147.31 C-31.01 147.32 -31.89 147.32 -32.79 147.32 C-40.23 147.26 -44.41 145.89 -50.06 140.88 C-50.9 140.15 -51.74 139.43 -52.6 138.68 C-58.06 132.59 -59.71 126.83 -59.56 118.75 C-59.55 117.92 -59.54 117.09 -59.54 116.24 C-59.3 109.24 -57.98 102.9 -54 97 C-48.78 92.38 -45.58 91.59 -38.7 91.65 C-36 92 -36 92 -32.94 94.19 C-28.35 100.84 -28.38 107.12 -29 115 C-30.21 120.31 -33.46 124.02 -37 128 C-39.65 131.05 -39.65 131.05 -40 135 C-36.69 136.65 -33.55 136.76 -30 136 C-18.9 129.07 -14.59 116.83 -11.68 104.68 C-10.59 99.96 -9.56 95.23 -8.54 90.49 C-6.01 78.9 -6.01 78.9 -4.13 73.53 C-2.61 68.78 -1.4 63.96 -0.18 59.12 C0.08 58.08 0.35 57.04 0.62 55.97 C1.17 53.77 1.73 51.57 2.28 49.37 C3.12 46.01 3.98 42.65 4.83 39.3 C5.37 37.16 5.91 35.02 6.45 32.88 C6.7 31.87 6.96 30.87 7.22 29.84 C8.94 23.01 8.94 23.01 9 16 C6.15 12.01 2.43 10.71 -2 9 C-2 6.69 -2 4.38 -2 2 C-1.34 1.67 -0.68 1.34 0 1 C0 0.67 0 0.34 0 0 Z M-35 120 C-34.67 120.66 -34.34 121.32 -34 122 C-33.67 121.34 -33.34 120.68 -33 120 C-33.66 120 -34.32 120 -35 120 Z M-41 128 C-40 130 -40 130 -40 130 Z " fill="#000E84" transform="translate(731,174)"/>
<path d="M0 0 C0 0.66 0 1.32 0 2 C4.65 2.18 7.73 1.73 12 0 C14.14 0.44 14.14 0.44 16 1 C15.55 6.93 14.76 12.3 13 18 C12.67 19.39 12.36 20.79 12.06 22.19 C8.73 37.55 8.73 37.55 7 41 C4.62 41.12 4.62 41.12 2 41 C-0.5 38.5 -0.24 37.64 -0.38 34.19 C-0.78 28.34 -2.31 23.19 -4.16 17.65 C-5 15 -5 15 -5 13 C-5.66 13 -6.32 13 -7 13 C-7 12.01 -7 11.02 -7 10 C-8.32 9.31 -9.66 8.65 -11 8 C-12.08 7.44 -12.08 7.44 -13.19 6.88 C-18.56 5.2 -23.8 5.16 -29 7.44 C-36.52 11.68 -42.24 18.33 -46 26 C-46.5 26.93 -46.99 27.86 -47.5 28.81 C-51.36 37.02 -54 45.15 -56 54 C-56.17 54.68 -56.34 55.35 -56.52 56.05 C-57.87 61.54 -58.32 66.67 -58.25 72.31 C-58.24 73.14 -58.24 73.96 -58.23 74.81 C-58.07 84.04 -57.89 92.54 -52 100 C-52 100.66 -52 101.32 -52 102 C-45.52 103.33 -37.95 104.47 -32 101 C-27.56 97.27 -25.95 93.86 -24.75 88.31 C-23.04 81.08 -23.04 81.08 -22 79 C-21.79 73.39 -21.79 73.39 -23 68 C-24.84 67.17 -24.84 67.17 -27 66.62 C-29.18 65.89 -29.18 65.89 -31 65 C-32.06 62.44 -32.06 62.44 -32 60 C-31.5 59.01 -31.5 59.01 -31 58 C-24.34 57.97 -17.69 57.96 -11.03 57.95 C-8.76 57.94 -6.5 57.93 -4.23 57.92 C-0.98 57.91 2.27 57.91 5.52 57.9 C7.05 57.89 7.05 57.89 8.61 57.89 C9.55 57.89 10.49 57.89 11.46 57.89 C12.29 57.88 13.12 57.88 13.98 57.88 C16 58 16 58 18 59 C18 60.98 18 62.96 18 65 C17.18 65.21 16.36 65.42 15.52 65.63 C14.44 65.94 13.36 66.25 12.25 66.56 C11.18 66.85 10.12 67.14 9.02 67.44 C4.44 69.8 2.86 73.35 1.34 78.05 C0.76 80.19 0.27 82.33 -0.19 84.5 C-0.43 85.58 -0.43 85.58 -0.69 86.68 C-1.46 90.13 -2.01 93.22 -2.16 96.77 C-3 100 -3 100 -6.11 102.29 C-7.45 102.96 -8.81 103.59 -10.19 104.19 C-10.91 104.52 -11.63 104.86 -12.38 105.2 C-26.26 111.43 -41.81 115.06 -57 112 C-67.74 107.8 -76.86 101.63 -81.94 91.05 C-88.16 74.88 -85.36 54.64 -78.52 39.18 C-78.02 38.13 -77.52 37.08 -77 36 C-76.61 35.17 -76.22 34.33 -75.82 33.47 C-72.77 27.14 -69.28 21.9 -64.56 16.75 C-63.85 15.94 -63.85 15.94 -63.12 15.11 C-60.48 12.21 -58.78 10.83 -55 10 C-54.72 9.39 -54.44 8.79 -54.14 8.16 C-51.52 3.21 -44.13 0.93 -39 -1 C-25.78 -4.48 -13.05 -3.29 0 0 Z M-47 20 C-46.67 20.99 -46.34 21.98 -46 23 C-45.67 22.01 -45.34 21.02 -45 20 C-45.66 20 -46.32 20 -47 20 Z " fill="#000E84" transform="translate(524,15)"/>
<path d="M0 0 C1.55 -0 1.55 -0 3.12 -0.01 C4.79 -0.01 4.79 -0.01 6.48 -0 C7.62 -0 8.76 -0.01 9.94 -0.01 C12.35 -0.01 14.76 -0.01 17.17 -0 C20.87 0 24.57 -0 28.27 -0.01 C30.61 -0.01 32.95 -0.01 35.29 -0 C36.4 -0.01 37.51 -0.01 38.65 -0.01 C39.68 -0.01 40.71 -0 41.77 0 C42.67 0 43.58 0 44.51 0 C46.82 0.13 46.82 0.13 49.82 1.13 C49.49 3.77 49.16 6.41 48.82 9.13 C47.48 9.38 47.48 9.38 46.12 9.65 C44.95 9.89 43.78 10.13 42.57 10.38 C41.41 10.61 40.25 10.84 39.05 11.08 C35.54 12.22 34.09 13.25 31.82 16.13 C30.62 19.14 29.7 22.02 28.82 25.13 C28.63 25.8 28.44 26.47 28.24 27.16 C26.05 34.8 23.91 42.41 22.27 50.19 C21.82 52.13 21.82 52.13 20.82 55.07 C19.95 57.72 19.39 60.2 18.88 62.94 C18.09 67.12 16.95 71.03 15.5 75.02 C14.51 78.07 13.99 81.17 13.43 84.31 C12.29 90.43 10.65 96.34 8.9 102.31 C7.53 107.17 6.31 112.06 5.13 116.98 C3.92 121.93 3.92 121.93 2.82 124.13 C2.75 125.5 2.74 126.88 2.76 128.25 C2.78 129.53 2.8 130.81 2.82 132.13 C3.42 132.24 4.03 132.35 4.65 132.46 C12.59 134.04 12.59 134.04 15.82 137.13 C15.16 139.44 14.5 141.75 13.82 144.13 C-5.65 144.13 -25.12 144.13 -45.18 144.13 C-45.51 142.48 -45.84 140.83 -46.18 139.13 C-44.1 136.1 -42.6 135.25 -39.05 134.26 C-36.76 133.88 -34.47 133.51 -32.18 133.13 C-29.09 132.38 -29.09 132.38 -27.39 130.04 C-25.88 126.42 -25.06 122.78 -24.3 118.94 C-22.96 112.49 -21.43 106.15 -19.62 99.82 C-17.86 93.63 -16.27 87.44 -14.86 81.17 C-14.15 77.98 -13.39 74.8 -12.62 71.63 C-12.39 70.69 -12.16 69.75 -11.93 68.79 C-11.18 66.13 -11.18 66.13 -10.24 63.94 C-8.62 59.64 -7.77 55.18 -6.8 50.69 C-5.38 44.2 -3.86 37.84 -1.87 31.5 C0 25.29 0.25 19.58 -0.18 13.13 C-0.94 12.83 -1.69 12.54 -2.47 12.23 C-5.46 11.01 -8.31 9.6 -11.18 8.13 C-11.3 5.75 -11.3 5.75 -11.18 3.13 C-7.88 -0.17 -4.5 0 0 0 Z " fill="#000E84" transform="translate(1121.179931640625,173.87060546875)"/>
<path d="M0 0 C1.28 -0.02 2.55 -0.03 3.87 -0.05 C7.83 0.34 10.13 1.37 13.56 3.31 C16.96 5.14 18.12 5.4 21.97 4.6 C23.18 4.19 24.38 3.79 25.62 3.38 C33.06 0.91 33.06 0.91 36.56 2.31 C36.28 9.48 34.97 15.73 32.73 22.54 C30.56 29.55 28.92 36.69 27.18 43.82 C26.58 46.22 25.96 48.62 25.32 51.01 C25.13 51.74 24.94 52.47 24.74 53.22 C24.22 55.19 23.69 57.16 23.16 59.12 C22.61 62.06 22.51 63.57 23.56 66.31 C29.04 68.17 29.04 68.17 34.56 67.31 C35.22 67.64 35.88 67.97 36.56 68.31 C36.18 71.13 35.92 72.87 34.56 75.31 C31.77 77.28 28.8 78.29 25.56 79.31 C24.81 79.56 24.06 79.81 23.29 80.07 C17.8 81.6 12.81 81.73 7.56 79.31 C5.55 77.55 3.85 75.75 2.17 73.68 C0.66 72.08 0.66 72.08 -1.43 72.42 C-4.3 73.7 -6.14 75.65 -8.36 77.84 C-14.74 82.37 -21.68 81.36 -28.96 80.13 C-34.29 78.88 -36.44 77.3 -39.52 72.69 C-42.88 66.73 -43.06 61.31 -42.94 54.56 C-42.93 53.49 -42.91 52.43 -42.9 51.33 C-42.71 43.73 -41.89 37.18 -38.44 30.31 C-37.96 29.34 -37.47 28.37 -36.98 27.37 C-35.54 24.63 -34.02 21.97 -32.44 19.31 C-31.8 18.22 -31.16 17.13 -30.5 16 C-23.24 6.54 -11.93 0.04 0 0 Z M-7.44 15.31 C-15.85 26.84 -18.62 38.93 -18.62 52.94 C-18.64 53.88 -18.65 54.82 -18.66 55.79 C-18.66 56.7 -18.67 57.6 -18.67 58.54 C-18.67 59.36 -18.68 60.18 -18.68 61.03 C-18.41 63.56 -17.79 65.16 -16.44 67.31 C-14.51 68.2 -14.51 68.2 -12.25 68.38 C-11.51 68.49 -10.78 68.6 -10.02 68.72 C-5.94 68.07 -3.21 66.37 -0.44 63.31 C1.15 59.97 1.95 56.54 2.75 52.94 C3.24 50.95 3.72 48.96 4.21 46.98 C4.43 46.01 4.66 45.04 4.9 44.04 C5.47 41.67 6.12 39.35 6.82 37.02 C9.26 28.89 10.87 20.82 9.56 12.31 C7.57 9.52 6.79 9.35 3.31 8.75 C-1.79 9.51 -4.11 11.47 -7.44 15.31 Z M-11.44 16.31 C-11.11 17.3 -10.78 18.29 -10.44 19.31 C-10.11 18.32 -9.78 17.33 -9.44 16.31 C-10.1 16.31 -10.76 16.31 -11.44 16.31 Z M10.56 16.31 C10.56 17.96 10.56 19.61 10.56 21.31 C10.89 21.31 11.22 21.31 11.56 21.31 C11.56 19.66 11.56 18.01 11.56 16.31 C11.23 16.31 10.9 16.31 10.56 16.31 Z " fill="#000E84" transform="translate(653.4375,45.6875)"/>
<path d="M0 0 C0.77 0.49 1.53 0.97 2.32 1.48 C5.67 3.51 7.69 3.88 11.45 3.13 C14.32 2.43 17.13 1.57 19.95 0.68 C23.39 -0.27 23.39 -0.27 26.39 0.73 C26.01 6.82 25.07 12.31 23.2 18.12 C22.36 20.81 21.67 23.5 21.01 26.23 C19.53 32.27 17.88 38.25 16.19 44.23 C12.73 54.41 12.73 54.41 13.39 64.73 C16.45 66.79 18.54 66.88 22.14 66.35 C22.94 66.24 23.74 66.13 24.56 66.02 C25.16 65.92 25.77 65.82 26.39 65.73 C25.86 68.49 25.28 71.05 24.39 73.73 C17.28 77.84 7.61 80.83 -0.43 78.73 C-3.09 77.06 -4.7 75.71 -6.8 73.48 C-7.73 72.57 -8.66 71.66 -9.61 70.73 C-12.42 71.02 -13.34 71.42 -15.24 73.54 C-19.98 77.91 -24.9 79.72 -31.36 79.74 C-37.95 79.09 -43.67 78.39 -48.39 73.44 C-54.3 65.19 -54.69 54.52 -53.61 44.73 C-51.74 35.31 -47.88 26.29 -43.61 17.73 C-42.95 17.73 -42.29 17.73 -41.61 17.73 C-41.3 16.67 -41.3 16.67 -40.99 15.6 C-39.22 11.9 -36.8 9.29 -33.61 6.73 C-32.62 6.4 -31.63 6.07 -30.61 5.73 C-30.28 5.07 -29.95 4.41 -29.61 3.73 C-21.12 -1.26 -9.32 -4.54 0 0 Z M-17.61 12.73 C-21.58 19.03 -24.66 25.54 -26.61 32.73 C-26.96 33.9 -27.31 35.08 -27.68 36.29 C-28.97 41.51 -28.91 46.68 -28.86 52.04 C-28.87 53.03 -28.88 54.02 -28.89 55.03 C-28.88 55.98 -28.88 56.93 -28.88 57.9 C-28.88 58.76 -28.87 59.61 -28.87 60.49 C-28.75 63.01 -28.75 63.01 -26.61 65.73 C-23.99 67.43 -23.99 67.43 -20.61 67.73 C-15.96 65.81 -12.24 63.04 -9.61 58.73 C-8.9 56.38 -8.28 54 -7.74 51.6 C-6.69 47.08 -5.61 42.6 -4.25 38.16 C-1.43 28.95 0.71 20.46 -0.61 10.73 C-1.27 9.74 -1.93 8.75 -2.61 7.73 C-9.17 7.2 -13.1 7.74 -17.61 12.73 Z M-23.61 74.73 C-23.28 75.39 -22.95 76.05 -22.61 76.73 C-21.95 76.07 -21.29 75.41 -20.61 74.73 C-21.6 74.73 -22.59 74.73 -23.61 74.73 Z " fill="#000E84" transform="translate(909.61328125,47.2734375)"/>
<path d="M0 0 C0.74 -0.02 1.49 -0.04 2.25 -0.06 C8.12 -0.1 12.06 1.16 16.71 4.94 C20.75 9.31 22.64 12.71 22.83 18.72 C22.4 23.99 20.78 28.28 18.12 32.81 C13.94 35.22 9.34 34.69 4.62 34.25 C1.62 33.25 1.62 33.25 -0.06 31.12 C-1.72 27.5 -1.78 25.21 -1.38 21.25 C-0.39 18.91 0.61 16.58 1.62 14.25 C1.88 10.96 1.88 10.96 1.62 8.25 C-4.12 8.52 -4.12 8.52 -9.06 11.19 C-17.52 22.38 -19.63 34.33 -19.81 48.06 C-19.85 49.55 -19.85 49.55 -19.88 51.07 C-19.86 57.31 -19.21 61.24 -15.38 66.25 C-11.64 68.64 -7.73 68.54 -3.48 67.64 C1.93 65.87 5.52 64.24 8.62 59.25 C9.28 58.92 9.95 58.59 10.62 58.25 C10.96 57.26 11.28 56.27 11.62 55.25 C13.5 55.56 13.5 55.56 15.62 56.25 C17.62 59.25 17.62 59.25 17.44 61.12 C16.44 63.74 15.22 65.95 13.62 68.25 C12.97 68.25 12.3 68.25 11.62 68.25 C11.13 69.73 11.13 69.73 10.62 71.25 C9.97 71.25 9.3 71.25 8.62 71.25 C8.62 71.91 8.62 72.57 8.62 73.25 C6.88 74.23 5.13 75.21 3.38 76.19 C2.4 76.73 1.43 77.28 0.42 77.84 C-5.14 80.64 -10.5 80.53 -16.62 80.62 C-17.54 80.66 -18.46 80.7 -19.4 80.74 C-27.16 80.84 -31.65 78.57 -37.36 73.48 C-38.02 72.68 -38.02 72.68 -38.69 71.88 C-39.14 71.35 -39.59 70.83 -40.05 70.29 C-44.11 64.03 -44.87 58.88 -44.75 51.56 C-44.74 50.68 -44.73 49.8 -44.73 48.89 C-44.52 39.34 -42.49 30.87 -38.38 22.25 C-37.72 22.25 -37.05 22.25 -36.38 22.25 C-36.11 21.49 -35.84 20.72 -35.56 19.94 C-34.41 17.33 -33.39 16.18 -31.38 14.25 C-31.04 13.26 -30.72 12.27 -30.38 11.25 C-28.12 9.75 -28.12 9.75 -25.38 8.25 C-24.61 7.78 -23.85 7.3 -23.06 6.81 C-15.17 2.22 -9.23 0.06 0 0 Z M14.62 60.25 C14.62 60.91 14.62 61.57 14.62 62.25 C15.28 61.92 15.95 61.59 16.62 61.25 C15.97 60.92 15.3 60.59 14.62 60.25 Z M10.62 66.25 C10.29 66.91 9.97 67.57 9.62 68.25 C10.28 68.25 10.95 68.25 11.62 68.25 C11.29 67.59 10.97 66.93 10.62 66.25 Z M7.62 68.25 C7.62 69.24 7.62 70.23 7.62 71.25 C8.28 70.26 8.95 69.27 9.62 68.25 C8.97 68.25 8.3 68.25 7.62 68.25 Z " fill="#010F84" transform="translate(832.375,45.75)"/>
<path d="M0 0 C0.98 0.02 1.97 0.04 2.98 0.05 C4.11 0.09 4.11 0.09 5.25 0.12 C10.07 6.95 11.47 12.82 10.25 21.12 C8.63 26.35 5.76 30.99 1.25 34.12 C-2.22 34.82 -5.28 34.84 -8.75 34.12 C-11.86 31.91 -13.28 30.37 -14.62 26.81 C-14.8 23.14 -14.3 19.76 -13.75 16.12 C-14.86 17.01 -15.96 17.91 -17.06 18.81 C-17.68 19.31 -18.29 19.81 -18.93 20.32 C-23.9 25.24 -24.82 30.95 -26.19 37.56 C-27.81 45.04 -29.59 52.38 -31.77 59.72 C-33.62 66.14 -35.16 72.64 -36.75 79.12 C-43.68 79.12 -50.61 79.12 -57.75 79.12 C-58.91 74.47 -57.98 71.67 -56.62 67.25 C-53.74 57.44 -51.49 47.52 -49.3 37.53 C-48.79 35.31 -48.21 33.11 -47.61 30.91 C-46.76 27.17 -46.55 23.95 -46.62 20.12 C-46.64 18.99 -46.66 17.86 -46.68 16.69 C-46.7 15.84 -46.73 15 -46.75 14.12 C-50.38 14.12 -54.01 14.12 -57.75 14.12 C-58.75 11.12 -58.75 11.12 -58.18 8.61 C-55.74 4.37 -51.87 3.64 -47.43 2.07 C-40.97 0.41 -34.12 0 -27.75 2.12 C-26.14 4.19 -26.14 4.19 -24.56 6.69 C-24.03 7.51 -23.5 8.34 -22.96 9.19 C-22.56 9.83 -22.16 10.47 -21.75 11.12 C-18.58 9.71 -16.3 7.97 -13.75 5.62 C-9.18 1.41 -6.3 -0.15 0 0 Z M-44.75 17.12 C-44.75 18.78 -44.75 20.42 -44.75 22.12 C-44.42 22.12 -44.09 22.12 -43.75 22.12 C-43.75 20.47 -43.75 18.83 -43.75 17.12 C-44.08 17.12 -44.41 17.12 -44.75 17.12 Z " fill="#000E84" transform="translate(600.75,45.875)"/>
<path d="M0 0 C2.66 3.21 2.97 5.15 2.74 9.25 C1.28 14.76 -3.46 17.72 -8.12 20.5 C-8.69 20.8 -9.26 21.09 -9.85 21.4 C-13.52 23.51 -16.84 26.13 -20.23 28.66 C-27.18 33.66 -27.18 33.66 -30.19 33.25 C-31.88 32.56 -31.88 32.56 -32.69 30.94 C-32.88 28.56 -32.88 28.56 -30.69 25.75 C-30.26 25.31 -29.83 24.87 -29.39 24.42 C-27.63 22.26 -26.33 19.93 -24.97 17.5 C-23.08 14.17 -21.02 10.96 -18.94 7.75 C-18.31 6.75 -18.31 6.75 -17.67 5.73 C-13.39 -0.83 -7.59 -3.8 0 0 Z " fill="#021084" transform="translate(675.875,6.4375)"/>
<path d="M0 0 C0.33 0.99 0.66 1.98 1 3 C-0.62 4.67 -2.25 6.34 -3.88 8 C-5.23 9.39 -5.23 9.39 -6.62 10.81 C-9 13 -9 13 -11 13 C-9.6 9.84 -7.95 7.68 -5.5 5.25 C-4.89 4.64 -4.28 4.02 -3.66 3.39 C-2 2 -2 2 0 2 C0 1.34 0 0.68 0 0 Z " fill="#16228C" transform="translate(1247,296)"/>
<path d="M0 0 C3.96 0 7.92 0 12 0 C12 0.33 12 0.66 12 1 C8.04 1 4.08 1 0 1 C0 0.67 0 0.34 0 0 Z " fill="#FAFDFF" transform="translate(811,127)"/>
<path d="M0 0 C2.64 0 5.28 0 8 0 C8 0.33 8 0.66 8 1 C5.36 1 2.72 1 0 1 C0 0.67 0 0.34 0 0 Z " fill="#FAFDFF" transform="translate(628,127)"/>
<path d="M0 0 C2.64 0 5.28 0 8 0 C8 0.33 8 0.66 8 1 C5.36 1 2.72 1 0 1 C0 0.67 0 0.34 0 0 Z " fill="#000E84" transform="translate(500,11)"/>
<path d="M0 0 C2.31 0 4.62 0 7 0 C7 0.33 7 0.66 7 1 C4.69 1 2.38 1 0 1 C0 0.67 0 0.34 0 0 Z " fill="#FAFDFF" transform="translate(874,127)"/>
<path d="M0 0 C3 1 3 1 3 1 Z " fill="#FAFDFF" transform="translate(469,127)"/>
<path d="M0 0 C0.99 0.5 0.99 0.5 2 1 C1.01 1.5 1.01 1.5 0 2 C0 1.34 0 0.68 0 0 Z " fill="#2A3395" transform="translate(748,18)"/>
<path d="M0 0 C2 1 2 1 2 1 Z " fill="#000E84" transform="translate(1185,192)"/>
<path d="M0 0 C2 1 2 1 2 1 Z " fill="#FAFDFF" transform="translate(1068,184)"/>
<path d="M0 0 C2 1 2 1 2 1 Z " fill="#FAFDFF" transform="translate(487,127)"/>
<path d="" fill="#E4E2EB" transform="translate(0,0)"/>
<path d="" fill="#E4E2EB" transform="translate(0,0)"/>
<path d="" fill="#E4E2EB" transform="translate(0,0)"/>
<path d="" fill="#FAFDFF" transform="translate(0,0)"/>
<path d="" fill="#FAFDFF" transform="translate(0,0)"/>
<path d="M0 0 C2 1 2 1 2 1 Z " fill="#000E84" transform="translate(536,14)"/>
<path d="" fill="#FB0302" transform="translate(0,0)"/>
<path d="" fill="#FAFDFF" transform="translate(0,0)"/>
<path d="" fill="#000E84" transform="translate(0,0)"/>
<path d="" fill="#000E84" transform="translate(0,0)"/>
<path d="" fill="#000E84" transform="translate(0,0)"/>
<path d="" fill="#807FB7" transform="translate(0,0)"/>
<path d="" fill="#FAFDFF" transform="translate(0,0)"/>
<path d="" fill="#000E84" transform="translate(0,0)"/>
<path d="" fill="#000E84" transform="translate(0,0)"/>
<path d="" fill="#CEC8D8" transform="translate(0,0)"/>
<path d="" fill="#000E84" transform="translate(0,0)"/>
<path d="" fill="#FAFDFF" transform="translate(0,0)"/>
<path d="" fill="#FAFDFF" transform="translate(0,0)"/>
<path d="" fill="#CEC8D8" transform="translate(0,0)"/>
<path d="" fill="#FAFDFF" transform="translate(0,0)"/>
<path d="" fill="#807FB7" transform="translate(0,0)"/>
<path d="" fill="#FAFDFF" transform="translate(0,0)"/>
<path d="" fill="#2F1713" transform="translate(0,0)"/>
<path d="" fill="#FAFDFF" transform="translate(0,0)"/>
<path d="" fill="#FAFDFF" transform="translate(0,0)"/>
<path d="" fill="#FAFDFF" transform="translate(0,0)"/>
<path d="" fill="#FAFDFF" transform="translate(0,0)"/>
<path d="" fill="#FAFDFF" transform="translate(0,0)"/>
<path d="" fill="#FAFDFF" transform="translate(0,0)"/>
<path d="" fill="#CEC8D8" transform="translate(0,0)"/>
<path d="" fill="#FAFDFF" transform="translate(0,0)"/>
<path d="" fill="#FAFDFF" transform="translate(0,0)"/>
<path d="" fill="#000E84" transform="translate(0,0)"/>
<path d="" fill="#000E84" transform="translate(0,0)"/>
<path d="" fill="#FAFDFF" transform="translate(0,0)"/>
<path d="" fill="#000E84" transform="translate(0,0)"/>
<path d="" fill="#FAFDFF" transform="translate(0,0)"/>
<path d="" fill="#FAFDFF" transform="translate(0,0)"/>
<path d="" fill="#000E84" transform="translate(0,0)"/>
<path d="" fill="#FB0302" transform="translate(0,0)"/>
<path d="" fill="#000E84" transform="translate(0,0)"/>
<path d="" fill="#000E84" transform="translate(0,0)"/>
<path d="" fill="#FAFDFF" transform="translate(0,0)"/>
<path d="" fill="#000E84" transform="translate(0,0)"/>
<path d="" fill="#2F1713" transform="translate(0,0)"/>
<path d="" fill="#FAFDFF" transform="translate(0,0)"/>
<path d="" fill="#FAFDFF" transform="translate(0,0)"/>
<path d="" fill="#FAFDFF" transform="translate(0,0)"/>
<path d="" fill="#000E84" transform="translate(0,0)"/>
<path d="" fill="#FAFDFF" transform="translate(0,0)"/>
<path d="" fill="#000E84" transform="translate(0,0)"/>
<path d="" fill="#000E84" transform="translate(0,0)"/>
<path d="" fill="#000E84" transform="translate(0,0)"/>
<path d="" fill="#000E84" transform="translate(0,0)"/>
<path d="" fill="#FAFDFF" transform="translate(0,0)"/>
<path d="" fill="#FAFDFF" transform="translate(0,0)"/>
<path d="" fill="#000E84" transform="translate(0,0)"/>
<path d="" fill="#CEC8D8" transform="translate(0,0)"/>
<path d="" fill="#000E84" transform="translate(0,0)"/>
<path d="" fill="#CEC8D8" transform="translate(0,0)"/>
<path d="" fill="#807FB7" transform="translate(0,0)"/>
<path d="" fill="#FB0302" transform="translate(0,0)"/>
</svg>
