<svg width="24" height="24" viewBox="0 0 24 24" fill="none" xmlns="http://www.w3.org/2000/svg">
<path d="M21.0375 16.0752L17.8625 15.7127C17.1 15.6252 16.35 15.8877 15.8125 16.4252L13.5125 18.7252C9.97499 16.9252 7.07499 14.0377 5.27499 10.4877L7.58749 8.17519C8.12499 7.63769 8.38749 6.8877 8.29999 6.1252L7.93749 2.9752C7.78749 1.7127 6.72499 0.762695 5.44999 0.762695H3.28749C1.87499 0.762695 0.69999 1.9377 0.78749 3.3502C1.44999 14.0252 9.98749 22.5502 20.65 23.2127C22.0625 23.3002 23.2375 22.1252 23.2375 20.7127V18.5502C23.25 17.2877 22.3 16.2252 21.0375 16.0752V16.0752Z" fill="url(#paint0_linear_496_28)"/>
<defs>
<linearGradient id="paint0_linear_496_28" x1="23.2376" y1="11.99" x2="0.782898" y2="11.99" gradientUnits="userSpaceOnUse">
<stop stop-color="#D081FF"/>
<stop offset="1" stop-color="#FF91DA"/>
</linearGradient>
</defs>
</svg>
