<svg width="9" height="16" viewBox="0 0 9 16" fill="none" xmlns="http://www.w3.org/2000/svg">
<path d="M4.71111 7.02222C2.69333 6.49778 2.04444 5.95556 2.04444 5.11111C2.04444 4.14222 2.94222 3.46667 4.44444 3.46667C5.70667 3.46667 6.33778 3.94667 6.56889 4.71111C6.67556 5.06667 6.96889 5.33333 7.34222 5.33333H7.60889C8.19556 5.33333 8.61333 4.75556 8.40889 4.20444C8.03556 3.15556 7.16444 2.28444 5.77778 1.94667V1.33333C5.77778 0.595556 5.18222 0 4.44444 0C3.70667 0 3.11111 0.595556 3.11111 1.33333V1.92C1.38667 2.29333 0 3.41333 0 5.12889C0 7.18222 1.69778 8.20444 4.17778 8.8C6.4 9.33333 6.84444 10.1156 6.84444 10.9422C6.84444 11.5556 6.40889 12.5333 4.44444 12.5333C2.97778 12.5333 2.22222 12.0089 1.92889 11.2622C1.79556 10.9156 1.49333 10.6667 1.12889 10.6667H0.88C0.284444 10.6667 -0.133333 11.2711 0.0888888 11.8222C0.595555 13.0578 1.77778 13.7867 3.11111 14.0711V14.6667C3.11111 15.4044 3.70667 16 4.44444 16C5.18222 16 5.77778 15.4044 5.77778 14.6667V14.0889C7.51111 13.76 8.88889 12.7556 8.88889 10.9333C8.88889 8.40889 6.72889 7.54667 4.71111 7.02222Z" fill="#FF90DA"/>
</svg>
