<svg width="23" height="24" viewBox="0 0 23 24" fill="none" xmlns="http://www.w3.org/2000/svg">
<path fill-rule="evenodd" clip-rule="evenodd" d="M12.0264 0.697926C14.8124 0.834849 17.4085 1.98372 19.3913 3.96786C21.5063 6.08419 22.6704 8.89736 22.6693 11.889C22.6668 18.0626 17.641 23.0858 11.467 23.0858C9.14526 23.0858 7.30029 22.3724 6.10898 21.7229L0.17041 23.2799L1.75971 17.4778C0.779378 15.7798 0.263533 13.8536 0.264341 11.8802C0.26682 5.70671 5.29221 0.684082 11.4668 0.684082L12.0264 0.697926ZM6.3841 19.6959L6.72415 19.8976C8.15372 20.7455 9.79238 21.1941 11.4632 21.1948H11.4669C16.5989 21.1948 20.7758 17.0199 20.7778 11.8884C20.7788 9.40175 19.8113 7.06355 18.0533 5.30451C16.2954 3.54535 13.9576 2.57601 11.4707 2.5752C6.33473 2.5752 2.1578 6.74968 2.15575 11.8808C2.15505 13.6393 2.64729 15.3519 3.57934 16.8335L3.80072 17.1857L2.86011 20.6198L6.3841 19.6959ZM17.1106 14.5516C17.0407 14.4348 16.8541 14.3649 16.5742 14.2248C16.2943 14.0848 14.9181 13.408 14.6615 13.3145C14.405 13.2213 14.2183 13.1746 14.0318 13.4546C13.8452 13.7346 13.3088 14.3649 13.1454 14.5516C12.9822 14.7383 12.8189 14.7617 12.539 14.6216C12.2591 14.4816 11.3572 14.1861 10.2881 13.233C9.45594 12.4911 8.89418 11.575 8.73089 11.2949C8.56765 11.0149 8.71348 10.8634 8.8536 10.724C8.97954 10.5986 9.13356 10.3972 9.27352 10.2338C9.41347 10.0705 9.46009 9.95369 9.55343 9.76705C9.64671 9.58031 9.60004 9.41699 9.53009 9.27694C9.46009 9.13684 8.90032 7.75975 8.66708 7.19956C8.43982 6.65407 8.20906 6.72792 8.03726 6.71931C7.87418 6.71123 7.6874 6.70945 7.50083 6.70945C7.3142 6.70945 7.01096 6.77942 6.75438 7.05957C6.49781 7.33961 5.7747 8.01652 5.7747 9.39351C5.7747 10.7707 6.77772 12.1009 6.91767 12.2876C7.05763 12.4744 8.89143 15.3002 11.6993 16.5121C12.3671 16.8004 12.8885 16.9725 13.295 17.1014C13.9656 17.3144 14.5757 17.2844 15.0581 17.2123C15.5958 17.132 16.7141 16.5355 16.9474 15.882C17.1806 15.2284 17.1806 14.6683 17.1106 14.5516Z" fill="white"/>
</svg>
